<svg xmlns="http://www.w3.org/2000/svg" width="6" height="10" viewBox="0 0 6 10"><g><g><path fill="#82722a" d="M2.972.115a3.002 3.002 0 0 1 2.99 3c0 .77-.29 1.468-.778 2.01v3.862a.303.303 0 0 1-.055.172.299.299 0 0 1-.218.109.282.282 0 0 1-.172-.064L2.945 7.8l-1.74 1.404a.277.277 0 0 1-.453-.217v-3.87a2.96 2.96 0 0 1-.78-2.002c0-1.65 1.342-3 3-3zM.788 4.202c.127.263.309.489.517.68a2.393 2.393 0 0 0 1.667.66c.643 0 1.223-.243 1.659-.66.208-.191.39-.417.516-.68.164-.326.254-.698.254-1.087A2.438 2.438 0 0 0 2.97.668 2.447 2.447 0 0 0 .527 3.115c0 .389.099.76.262 1.087zM4.63 5.598a2.989 2.989 0 0 1-1.66.507c-.615 0-1.186-.19-1.666-.507v2.809L2.773 7.22c.036-.046.099-.064.163-.064.073 0 .135.018.18.064l1.515 1.196z"/></g></g></svg>