<svg xmlns="http://www.w3.org/2000/svg" width="96" height="76" viewBox="0 0 96 76"><g><g><path fill="#83742a" d="M41.538 33.849c-.286.242-.544.456-.758.624.036-.001.483-.11.794-.187zm12.974-16.681l.378-1.27-1.165-.628v1.112zm-.787-2.207c.341.272.541.38.97.61 1.42.754 3.127 1.732 4.532 2.405.073-.252-.078-.555-.227-.64-.945-.538-1.9-.99-2.82-1.495-.365-.2-1.83-.98-2.259-1.298-.028-.02-.023-.032.001-.02 1.456.737 4.033 1.886 5.45 2.799.054-.275-.006-.333-.179-.462-.985-.735-2.414-1.468-3.404-1.908-.393-.175-1.419-.623-1.823-.874-.027-.017-.003-.022.032-.01 1.411.514 3.146 1.054 4.796 2.218.125.088.216.15.626.439l.08-.518c-.058-.05-.289-.258-.348-.31-1.619-1.4-3.427-2.258-5.019-2.301l-.07-.002c-.092 0-.07-.023.042-.031a7.326 7.326 0 0 1 2.267.22c.117.03.234.067.351.1 1.181.35 2.111.889 2.581 1.196.111.08.223.142.334.23l4.661-5.225-.23-.242s.272-.322.28-.34l-.169-.105c-.148.053-3.179 3.57-4.497 5.059-.212-.101-.424-.164-.637-.25-2.127-1.143-4.884-.695-5.32-.614zm0-1.497c1.983-.511 3.94-.284 5.923.696 1.78-1.918 3.01-3.331 4.596-5.13-.695-.426-1.692-.663-2.739-.801-.383-.05-.84-.05-1.366-.05-.449-.001-.987.032-1.27.205-.2.122-.463.375-.683.596-.667.667-1.346 1.317-2.017 1.963l-2.444 2.444zm2.324-2.646c.644-.671 1.294-1.35 1.96-2.014.221-.222.474-.483.597-.683.172-.284.206-.821.204-1.271.001-.525.001-.982-.05-1.365-.138-1.047-.374-2.045-.8-2.741-.912.803-1.723 1.515-2.55 2.252l.477 5.673-2.1.626a8.204 8.204 0 0 1-.262 1.97h.077zm-2.262.477l-.099.03-2.405.717.135.25c.23.432.34.63.61.973h1.37c.038-.21.161-.95.153-1.9l.137-.04.1-.03zm-2.067 1.97l-.63-1.166-1.27.379.787.787zm-2.117-1.005c.433-.05.651-.113 1.118-.256 1.537-.47 3.435-.986 4.904-1.503-.126-.23-.447-.338-.612-.291-1.049.288-2.044.643-3.052.935-.399.118-1.987.602-2.515.68-.035.005-.039-.006-.013-.015 1.55-.508 4.185-1.518 5.832-1.875-.156-.232-.24-.23-.452-.2-1.216.178-2.745.67-3.756 1.059-.403.154-1.445.562-1.909.67-.03.008-.016-.012.018-.03 1.36-.633 2.97-1.478 4.957-1.822l.754-.133-.31-.422c-.076.005-.386.022-.463.028-2.136.154-4.022.826-5.178 1.92l-.05.05c-.065.064-.066.032.007-.052a7.254 7.254 0 0 1 1.76-1.447c.103-.062.212-.12.317-.18a10.125 10.125 0 0 1 2.672-.977c.135-.023.258-.06.398-.074l-.398-6.991-.334-.01s-.036-.418-.043-.436l-.193.044c-.067.143.276 4.773.397 6.758-.22.078-.416.183-.628.273-2.31.696-3.945 2.964-4.196 3.329zm-1.059-1.058c1.041-1.765 2.585-2.987 4.681-3.698C53.127 4.89 53 3.022 52.848.628c-.793.189-1.667.728-2.504 1.37-.307.236-.629.559-1 .93-.32.317-.677.72-.755 1.044-.055.228-.06.59-.06.904 0 .944-.02 1.883-.039 2.815v3.456zm-.228-3.515c-.017-.93-.038-1.87-.038-2.811 0-.313-.005-.676-.06-.904-.078-.323-.436-.727-.754-1.043-.372-.372-.695-.695-1-.931-.839-.642-1.712-1.181-2.506-1.37-.15 2.394-.278 4.263-.376 6.876 2.096.71 3.64 1.933 4.681 3.698l.053-.055zm-.144 3.605c-.25-.365-1.885-2.633-4.197-3.33-.21-.09-.407-.194-.627-.272.12-1.985.464-6.615.397-6.758l-.193-.044c-.007.018-.043.437-.043.437l-.334.009-.4 6.99c.142.016.265.052.4.075.55.114 1.588.392 2.672.978.105.06.213.117.317.179a7.25 7.25 0 0 1 1.76 1.447c.073.084.072.116.008.052l-.05-.05c-1.157-1.094-3.043-1.766-5.179-1.92-.078-.006-.388-.023-.464-.028l-.309.422c.493.087.6.107.753.133 1.99.344 3.597 1.189 4.958 1.823.033.017.048.037.016.03-.463-.11-1.505-.517-1.907-.671-1.012-.39-2.54-.881-3.756-1.058-.214-.031-.297-.033-.453.199 1.648.357 4.282 1.367 5.833 1.875.025.009.021.02-.015.015-.526-.078-2.115-.562-2.513-.68-1.008-.292-2.003-.647-3.052-.935-.166-.047-.486.06-.612.29 1.467.518 3.367 1.034 4.904 1.504.466.143.684.206 1.118.256zm-2.455.807l-.63 1.166h1.112l.786-.787zm-.939 1.166c.272-.342.381-.542.61-.972l.135-.251-2.267-.676c-.008.949.114 1.69.153 1.899zm-1.497 0a8.154 8.154 0 0 1-.262-1.97l-2.099-.626.478-5.673c-.829-.737-1.64-1.45-2.55-2.252-.427.696-.664 1.694-.802 2.74-.05.384-.05.84-.05 1.366-.002.45.032.987.205 1.27.122.2.375.462.596.683.667.667 1.317 1.346 1.964 2.018l2.444 2.444zm-2.646-2.325c-.67-.645-1.349-1.294-2.015-1.96-.22-.221-.482-.474-.682-.596-.284-.173-.82-.206-1.27-.204-.526-.001-.983-.001-1.366.048-1.047.139-2.045.375-2.739.802 1.585 1.799 2.816 3.212 4.595 5.13 1.985-.98 3.941-1.208 5.924-.696v-.077zm2.447 2.652c-.436-.081-3.194-.53-5.322.613-.212.087-.425.15-.637.25-1.317-1.487-4.349-5.005-4.496-5.058l-.169.105c.008.017.28.339.28.339l-.23.243 4.66 5.225c.111-.088.223-.15.335-.23a10.13 10.13 0 0 1 2.581-1.196c.117-.033.233-.07.351-.1a7.293 7.293 0 0 1 2.267-.22c.112.007.134.03.042.03l-.07.003c-1.592.043-3.4.9-5.02 2.302l-.347.308.08.518c.41-.288.5-.35.626-.44 1.65-1.162 3.385-1.702 4.795-2.215.035-.013.06-.008.033.008-.405.25-1.43.7-1.824.875-.99.44-2.418 1.173-3.404 1.908-.173.129-.233.186-.178.46 1.417-.911 3.993-2.06 5.45-2.797.023-.012.028-.001 0 .02-.428.317-1.894 1.098-2.259 1.297-.919.507-1.874.958-2.819 1.497-.15.084-.3.387-.227.639 1.403-.673 3.11-1.651 4.53-2.405.431-.23.63-.34.972-.61zm0 1.677l-1.165.63.378 1.269.787-.786zm-1.005 2.118c-.05-.435-.113-.652-.256-1.12l-.082-.272-2.08 1.125a10.457 10.457 0 0 0 1.45 1.234zm-1.058 1.058a8.226 8.226 0 0 1-1.579-1.207l-1.926 1.042-3.674-4.35c-1.107.064-2.184.135-3.395.21.19.794.728 1.668 1.37 2.505.236.306.56.629.931 1 .317.32.721.677 1.043.754.228.056.592.062.904.062.944 0 1.883.02 2.815.038h3.457zm-3.515.228c-.93.017-1.868.038-2.81.038-.313 0-.677.006-.905.06-.322.079-.726.435-1.043.754-.372.372-.695.695-.93 1-.643.839-1.18 1.712-1.37 2.506 1.21.076 2.286.146 3.394.21l3.674-4.35 1.926 1.042c.468-.458.993-.86 1.58-1.206l-.056-.054zm-3.73 4.646l-.06.07c-1.542-.1-2.889-.181-2.964-.145l-.045.193c.018.008.438.043.438.043l.008.334 2.103.12zm.066-.078l-.067.078zm7.268-4.424c-.174.12-.785.558-1.45 1.234l2.081 1.125.082-.273c.143-.466.206-.684.256-1.118zm.81 2.455l1.164.63V20.79l-.787-.787zm1.164.939c-.342-.272-.54-.381-.972-.61-1.42-.754-3.127-1.732-4.53-2.405-.074.25.077.555.227.639.945.538 1.9.99 2.82 1.496.364.199 1.83.98 2.258 1.297.028.02.023.033 0 .02-1.457-.736-4.033-1.885-5.45-2.798-.055.275.005.332.178.462.986.734 2.413 1.467 3.404 1.907.393.176 1.42.624 1.824.875.026.016.002.02-.033.009-1.41-.513-3.146-1.054-4.795-2.216-.126-.09-.217-.152-.627-.44l-.079.518.347.309c1.62 1.4 3.427 2.259 5.02 2.302h.07c.092 0 .07.025-.043.032a7.327 7.327 0 0 1-2.267-.22c-.118-.031-.234-.066-.35-.1a10.078 10.078 0 0 1-2.58-1.196c-.113-.08-.226-.141-.336-.23l-4.66 5.225.23.243s-.272.322-.28.339l.168.105c.147-.052 3.18-3.57 4.497-5.058.212.1.425.164.637.25 2.128 1.143 4.886.695 5.322.614zm0 1.496c-1.983.512-3.939.285-5.925-.695-1.778 1.918-3.009 3.33-4.594 5.129.694.427 1.692.664 2.74.802.382.05.84.05 1.364.049.45.002.987-.031 1.271-.205.2-.121.461-.375.682-.595.667-.668 1.347-1.318 2.018-1.963l2.444-2.444zm.122.2l-2.446 2.447c-.646.67-1.295 1.348-1.96 2.014-.222.22-.475.483-.597.683-.173.283-.207.82-.205 1.27 0 .527 0 .984.05 1.366.138 1.047.375 2.045.802 2.74.91-.802 1.721-1.514 2.55-2.252l-.479-5.673 2.1-.626c.006-.654.092-1.31.262-1.968zm.205 0c-.039.21-.16.95-.153 1.899l2.267-.676-.135-.252c-.229-.43-.338-.63-.61-.97zm1.677 0l.63 1.165 1.27-.378-.787-.786zm2.117 1.004c-.433.05-.65.114-1.117.256-1.537.472-3.437.986-4.905 1.503.127.23.447.338.613.292 1.05-.288 2.043-.643 3.052-.936.398-.117 1.986-.601 2.513-.68.036-.005.04.006.015.016-1.55.508-4.185 1.517-5.833 1.874.156.233.24.23.453.2 1.216-.177 2.744-.67 3.755-1.058.403-.155 1.444-.562 1.908-.672.031-.007.017.015-.016.03-1.36.635-2.969 1.479-4.958 1.823-.153.026-.26.047-.754.133l.31.423.464-.028c2.135-.154 4.021-.826 5.178-1.922l.051-.048c.064-.065.065-.032-.009.052a7.315 7.315 0 0 1-1.759 1.447c-.104.062-.212.119-.318.178a10.096 10.096 0 0 1-2.67.979c-.137.023-.26.058-.4.074l.4 6.99.333.01s.035.419.043.437l.193-.045c.067-.141-.277-4.772-.397-6.757.22-.078.415-.184.627-.273 2.311-.696 3.945-2.963 4.197-3.33zm1.06 1.059c-1.042 1.765-2.586 2.987-4.682 3.697.1 2.614.227 4.483.377 6.877.794-.19 1.667-.728 2.505-1.37.306-.236.63-.56 1-.931.32-.317.676-.721.754-1.043.056-.227.061-.592.061-.905 0-.943.021-1.883.038-2.814v-3.456zm.227 3.515c.018.93.038 1.869.038 2.81 0 .313.006.678.061.905.078.323.434.726.754 1.043.371.372.694.695 1.001.93.837.643 1.711 1.18 2.504 1.37.151-2.393.278-4.262.377-6.876-2.096-.711-3.64-1.932-4.68-3.696l-.055.054zm.145-3.605c.252.366 1.885 2.633 4.196 3.329.212.089.406.195.628.273-.12 1.984-.464 6.616-.397 6.757l.192.045c.008-.018.043-.437.043-.437l.334-.01.4-6.99c-.142-.016-.264-.051-.399-.074a10.124 10.124 0 0 1-2.672-.98c-.106-.058-.214-.116-.317-.177a7.3 7.3 0 0 1-1.76-1.447c-.074-.085-.073-.117-.008-.052l.051.048c1.156 1.096 3.042 1.768 5.178 1.922l.462.028.311-.423c-.494-.086-.602-.107-.754-.132-1.988-.345-3.598-1.19-4.958-1.824-.033-.016-.048-.037-.017-.03.463.11 1.506.518 1.91.672 1.01.389 2.538.88 3.754 1.058.213.03.296.033.453-.2-1.647-.357-4.282-1.366-5.832-1.875-.027-.008-.022-.02.013-.015.528.079 2.116.563 2.515.68 1.008.293 2.003.648 3.052.936.165.046.486-.062.612-.292-1.469-.517-3.367-1.032-4.904-1.503-.467-.142-.685-.205-1.118-.255zm2.455-.808l.63-1.164h-1.113l-.787.786zm.937-1.164c-.27.34-.379.54-.609.97l-.135.252 2.268.676a10.552 10.552 0 0 0-.153-1.898zm3.306 9.172l1.571 1.402.244-.23s.321.27.338.279l.106-.168c-.028-.08-1.037-.973-2.199-1.992zm.076-.905c.828.738 1.64 1.45 2.55 2.253.426-.696.663-1.694.801-2.741.05-.382.05-.84.05-1.365.002-.45-.032-.988-.205-1.271-.122-.2-.375-.462-.596-.683-.667-.667-1.318-1.346-1.963-2.017l-2.443-2.443h-.078c.17.658.255 1.314.262 1.968l2.1.626zm.762-5.944c.671.645 1.35 1.295 2.015 1.96.22.22.482.475.682.596.284.174.822.207 1.271.205.526 0 .982 0 1.366-.05 1.046-.137 2.045-.374 2.74-.801-1.587-1.8-2.818-3.211-4.597-5.128-1.984.978-3.94 1.206-5.923.695v.077zm-2.446-2.651c.436.08 3.194.528 5.322-.614.212-.086.425-.15.636-.25 1.318 1.488 4.35 5.006 4.497 5.059l.168-.105c-.007-.018-.279-.34-.279-.34l.23-.243-4.66-5.224c-.113.088-.224.15-.335.229-.47.308-1.4.845-2.58 1.197-.118.033-.235.068-.352.099a7.297 7.297 0 0 1-2.267.22c-.112-.007-.135-.031-.042-.031l.07-.001c1.592-.043 3.4-.901 5.02-2.303l.346-.308-.079-.518-.627.44c-1.649 1.162-3.384 1.703-4.795 2.215-.035.013-.059.009-.032-.008.404-.25 1.43-.7 1.823-.874.99-.441 2.42-1.173 3.404-1.908.173-.13.233-.187.18-.462-1.418.913-3.995 2.06-5.45 2.799-.025.012-.03 0-.002-.021.43-.317 1.894-1.098 2.26-1.297.918-.505 1.874-.958 2.82-1.496.148-.084.3-.388.226-.64-1.405.674-3.112 1.652-4.532 2.406-.43.229-.629.338-.97.61zm0-1.677l1.165-.63-.379-1.27-.786.787zm1.005-2.117c.048.434.112.65.254 1.117l.083.274 2.081-1.126a10.486 10.486 0 0 0-1.45-1.234zm1.058-1.06c.585.347 1.11.749 1.577 1.207l1.928-1.041 4.26 5.042 2.101-.12.01-.334s.42-.035.437-.043l-.045-.193c-.075-.036-1.42.045-2.963.146l-.126-.15c1.106-.063 2.183-.133 3.394-.21-.19-.793-.727-1.666-1.37-2.504-.236-.305-.558-.628-.93-1-.318-.32-.72-.676-1.044-.754-.228-.055-.59-.061-.905-.061-.942 0-1.882-.021-2.813-.038h-3.456zm3.515-.227c.93-.018 1.868-.038 2.81-.038.312 0 .676-.006.904-.061.323-.078.726-.435 1.043-.754.373-.371.695-.694.93-1 .643-.838 1.182-1.712 1.371-2.505-1.21-.076-2.288-.147-3.394-.21l-3.674 4.349-1.928-1.042a8.212 8.212 0 0 1-1.577 1.207l.054.054zm-3.606-.145c.175-.12.785-.557 1.451-1.234l-2.08-1.125-.084.273c-.142.467-.206.685-.254 1.119zm-2.426 2.248l2.015-2.016-2.015-2.016v-2.851H50.42l-2.016-2.016-2.015 2.016h-2.852v2.85l-2.015 2.017 2.015 2.016v2.85h2.851l2.016 2.017 2.016-2.016h2.852zM41.586 34.42c-.338.064-.467.098-1.009.255l-.304-.304a5.59 5.59 0 0 1-.38.33l-.252-.254a4.28 4.28 0 0 1-.36.295l-.223-.294c-.092.06-.186.164-.277.202-.57-.911-.768-1.891-.887-2.812-.114-.89-.073-1.786.058-2.68 0 0 0-.081.005-.127-.047.005-.128.005-.128.005-.892.13-1.79.172-2.68.058-.92-.12-1.9-.317-2.81-.888.037-.09.142-.184.201-.276l-.294-.223c.09-.125.163-.21.295-.36l-.254-.251s.21-.264.33-.382l-.304-.304c.175-.605.198-.694.28-1.14a2.56 2.56 0 0 1-.246-.262l.04-.046c-.285-.195-.4-.261-.895-.533V24a5.936 5.936 0 0 1-.503-.037l.002-.357a4.065 4.065 0 0 1-.463-.047l.05-.365c-.107-.023-.247-.015-.338-.052.241-1.047.794-1.88 1.361-2.616.547-.71 1.212-1.314 1.935-1.853 0 0 .057-.058.095-.087-.038-.03-.095-.087-.095-.087-.723-.54-1.388-1.144-1.935-1.854-.567-.735-1.12-1.568-1.36-2.615.09-.037.23-.03.337-.053l-.05-.365c.152-.026.264-.034.463-.047l-.002-.357s.334-.038.503-.036v-.431c.493-.271.61-.338.894-.532l-.039-.046c.037-.047.185-.217.245-.264-.08-.445-.104-.533-.279-1.138l.304-.305a5.782 5.782 0 0 1-.329-.381l.253-.251a4.28 4.28 0 0 1-.295-.361l.294-.223c-.059-.092-.164-.185-.202-.276.911-.57 1.892-.768 2.811-.887.89-.115 1.788-.073 2.68.058 0 0 .081-.001.128.005-.006-.047-.005-.128-.005-.128-.13-.893-.172-1.79-.058-2.68.12-.92.317-1.901.887-2.811.091.038.185.142.277.202l.222-.294c.126.089.21.163.361.294l.252-.253s.262.209.38.33l.305-.305c.541.158.67.192 1.008.256l.006-.061c.058-.007.283-.022.36-.012.256-.372.303-.451.607-1.003h.43a5.654 5.654 0 0 1 .036-.503l.358.002c.013-.2.02-.312.047-.464l.365.05c.022-.107.015-.246.052-.337 1.048.24 1.881.794 2.616 1.36.71.548 1.314 1.212 1.853 1.936 0 0 .058.057.087.094.03-.037.087-.094.087-.094.54-.724 1.144-1.388 1.854-1.936.735-.566 1.568-1.12 2.616-1.36.037.09.03.23.052.338l.365-.051c.026.152.033.264.047.464l.356-.002s.038.334.037.503h.431c.303.552.351.63.607 1.003.076-.01.301.005.36.012l.005.06c.34-.063.468-.097 1.01-.255l.303.304a5.99 5.99 0 0 1 .381-.328l.251.252c.15-.131.235-.205.361-.293l.223.293c.092-.06.185-.164.275-.203.572.912.77 1.892.89 2.812.112.89.07 1.787-.059 2.68 0 0 .001.082-.006.128.047-.006.13-.005.13-.005.891-.131 1.79-.172 2.678-.058.92.119 1.902.317 2.812.887-.039.09-.143.184-.203.277l.294.222c-.088.126-.162.21-.294.36l.253.252s-.209.263-.329.38l.303.306c-.175.605-.197.694-.279 1.138.06.047.21.217.246.264l-.039.046c.284.194.4.262.894.533v.43c.167-.001.501.037.501.037v.356c.2.013.311.02.462.047l-.049.366c.107.022.246.015.337.05-.24 1.049-.793 1.883-1.36 2.617-.549.71-1.212 1.315-1.936 1.854 0 0-.057.058-.094.087.037.029.095.087.095.087.723.539 1.386 1.144 1.935 1.854.567.735 1.12 1.568 1.36 2.615-.09.037-.23.029-.338.052l.05.366c-.15.026-.263.033-.463.046l.001.357s-.334.039-.5.037l-.002.43c-.493.27-.61.339-.893.532l-.088-.104c.275-.165.668-.404.694-.427-.27.03-.604.062-.976.093l.41.485a2.574 2.574 0 0 1-.247.263c.082.445.103.534.28 1.139l-.304.304c.12.119.33.382.33.382l-.254.25c.132.15.206.236.294.362l-.294.223c.06.092.164.185.203.275-.91.57-1.892.769-2.812.888-.889.114-1.787.072-2.68-.058 0 0-.08 0-.128-.005.006.046.006.128.006.128.13.893.171 1.79.057 2.68-.119.92-.317 1.9-.888 2.81-.089-.037-.183-.141-.276-.201l-.223.294c-.125-.088-.21-.163-.36-.295l-.25.254s-.265-.21-.383-.33l-.303.304c-.54-.157-.67-.191-1.009-.255l-.005.06c-.06.008-.284.022-.36.013-.256.372-.304.45-.608 1.003h-.43a5.9 5.9 0 0 1-.037.502l-.356-.001c-.014.2-.022.312-.047.463l-.365-.05c-.023.107-.015.247-.052.338-1.048-.24-1.88-.794-2.616-1.36-.71-.55-1.315-1.212-1.854-1.936 0 0-.058-.057-.087-.095-.029.038-.087.095-.087.095-.539.724-1.143 1.387-1.854 1.936-.735.566-1.568 1.12-2.615 1.36-.037-.091-.03-.231-.052-.338l-.366.05c-.026-.151-.033-.263-.046-.463l-.358.002s-.038-.334-.036-.503h-.43c-.304-.552-.35-.631-.608-1.003a2.458 2.458 0 0 1-.36-.013zm21.507-20.64c1.542.1 2.89.182 2.964.147l.044-.193a10.359 10.359 0 0 0-.437-.043l-.01-.334-2.102-.12zm.59-.697c.84.059 1.427.097 1.452.077l.016-.228c-.015-.022-.506-.071-1.232-.13zm.368-.437c.372.032.706.063.976.095a19.741 19.741 0 0 0-.695-.43zm-.025-.587s.263-1.042.265-1.096c-1.177 1.483-4.476 5.122-4.623 5.313 0 0-.056.31-.105.562-.057.277-.077.606-.125.83.396-.447.78-.908 1.168-1.363v.008l3.531-4.135zm.044-1.47c-.089.008-3.01 3.507-4.463 5.005-1.012-.728-2.025-1.264-3.038-1.57a15.139 15.139 0 0 1 3.061 2.096c1.185-1.348 4.631-5.292 4.613-5.38zm-8.737-6.497l.06.708c1.162-1.02 2.171-1.913 2.2-1.992l-.106-.168c-.017.007-.339.279-.339.279l-.243-.23zm-.017-.201c.636-.553 1.08-.941 1.082-.973l-.149-.173c-.027-.005-.408.309-.964.779zm-.085-1.005l.038.435c.285-.241.544-.454.756-.623-.035 0-.48.11-.794.188zm-.395.036s-.55-.921-.588-.961c.216 1.88.457 6.786.488 7.026 0 0 .18.259.323.472.156.236.375.482.5.676-.15-2.395-.37-4.804-.56-7.206zm-1.008-1.07c-.057.07.35 4.61.383 6.695-1.23.2-2.326.539-3.259 1.039.81-.267 2.24-.61 3.647-.682-.116-1.792-.468-7.017-.543-7.067zm-11.077-.015c-.076.05-.428 5.275-.543 7.067 1.406.072 2.836.415 3.646.682-.932-.5-2.028-.838-3.258-1.04.033-2.084.44-6.624.382-6.693zM41.81 2.93c-.19 2.402-.412 4.81-.56 7.206.123-.194.343-.44.498-.676.144-.213.323-.472.323-.472.032-.24.272-5.145.49-7.026-.038.04-.59.96-.59.96zm-.234-.043a19.195 19.195 0 0 0-.794-.19c.213.17.472.384.757.625zm-.053.638c-.556-.471-.938-.784-.964-.78l-.15.174c.003.03.447.42 1.082.973zm-1.62-.835l-.243.23s-.322-.272-.34-.28l-.104.169c.027.079 1.036.974 2.2 1.992l.06-.71zm-7.338 8.05c-.018.089 3.427 4.033 4.613 5.38a15.147 15.147 0 0 1 3.06-2.095c-1.012.305-2.026.84-3.038 1.57-1.45-1.498-4.374-4.997-4.463-5.004zm.215 1.319l-.109.12 3.531 4.135v-.008c.39.455.772.916 1.167 1.364-.049-.225-.068-.554-.124-.831-.05-.251-.106-.562-.106-.562-.147-.191-3.446-3.83-4.622-5.314.002.055.263 1.096.263 1.096zm.11.744c-.727.059-1.218.107-1.234.13l.017.228c.024.02.612-.018 1.453-.077zm-.415-.49c-.276.166-.669.404-.695.428.271-.031.605-.062.977-.094zm-1.33 1.378s-.42.036-.439.043l.045.193c.075.036 1.422-.045 2.964-.146l-.46-.543-2.103.119zm.511 10.547c.016.023.507.07 1.233.13l.237-.281c-.84-.06-1.429-.096-1.453-.076zm1.101.286a33.004 33.004 0 0 1-.977-.094c.026.024.42.263.695.428zm.023.588s-.26 1.04-.263 1.096c1.176-1.483 4.475-5.122 4.622-5.314 0 0 .056-.311.106-.562.056-.276.075-.606.124-.831-.395.449-.778.91-1.167 1.364v-.008l-3.53 4.136zm-.043 1.468c.09-.007 3.012-3.505 4.463-5.003 1.012.728 2.026 1.264 3.038 1.569a15.064 15.064 0 0 1-3.06-2.096c-1.186 1.348-4.63 5.293-4.613 5.38zm8.737 6.499l-.06-.708c-1.162 1.019-2.17 1.913-2.198 1.992l.104.168c.018-.008.34-.28.34-.28l.242.23zm.016.2c-.635.553-1.078.943-1.08.974l.15.172c.025.006.407-.307.962-.78zm.481.969s.552.922.59.962c-.218-1.881-.458-6.787-.49-7.026 0 0-.18-.26-.323-.472-.155-.236-.375-.482-.499-.676.15 2.395.371 4.804.561 7.206zm1.008 1.07c.058-.07-.349-4.61-.382-6.695 1.23-.2 2.326-.538 3.258-1.04-.81.269-2.24.61-3.646.684.115 1.79.467 7.017.542 7.067zm11.078.016c.075-.05.427-5.276.543-7.067a15.126 15.126 0 0 1-3.647-.683c.932.5 2.028.839 3.26 1.039-.034 2.086-.44 6.626-.384 6.695zm.941-1.092c.19-2.402.413-4.811.561-7.206-.124.194-.343.44-.499.676-.143.213-.324.472-.324.472-.03.239-.27 5.145-.488 7.026.038-.04.59-.962.59-.962zm.234.044c.313.077.76.187.794.187a30.027 30.027 0 0 1-.756-.624zm1.167-.033c-.003-.031-.446-.421-1.082-.973l-.03.367c.554.47.936.785.963.779zm7.844-7.821c.02-.09-3.427-4.034-4.612-5.382a15.042 15.042 0 0 1-3.062 2.096c1.013-.305 2.027-.841 3.04-1.57 1.451 1.499 4.373 4.997 4.462 5.005zm-.105-1.44c-1.565-1.831-3.11-3.693-4.699-5.49.05.224.068.553.125.83.05.252.105.563.105.563.147.19 3.446 3.829 4.622 5.313a36.248 36.248 0 0 0-.264-1.096zm-.218-.623c.726-.06 1.217-.107 1.232-.13l-.016-.228c-.025-.02-.612.018-1.453.076z"/></g><g><path fill="#847129" d="M49.697 22.059h.02"/></g><g><path fill="#847129" d="M45.615 21.263h.028c.007 0 0-.01 0-.01z"/></g><g><path fill="#fff" d="M47.67 22.629c-.027-.015-.053-.015-.085-.071h.032a.36.36 0 0 1 .18 0v.056zm.239.073l-.014-.017c0-.027.014-.045.014-.056.025 0 .042 0 .083-.015.057 0 .139.015.182.056-.058.044-.153.044-.265.044zm.921-.017c0-.015-.016-.015-.027-.027.011 0 .027-.018.041-.044.085-.056.213-.071.28-.056v.056c-.057.071-.195.071-.294.071zm.367-.201c.01 0 .041 0 .066-.056.045 0 .111-.029.154.026v.062l-.154.027z"/></g><g><path fill="#fff" d="M48.566 22.506l.01-.018c-.01 0-.01.018-.018.018z"/></g><g><path fill="#fff" d="M48.578 22.29l.022-.02s-.03.02-.022.02z"/></g><g><path fill="#fff" d="M48.08 22.227s.006 0 .006-.012"/></g><g><path fill="#fff" d="M47.67 22.157h.01"/></g><g><path fill="#fff" d="M49.703 22.121h.02"/></g><g><path fill="#fff" d="M49.269 22.121h.012s-.012-.012-.012 0z"/></g><g><path fill="#fff" d="M50.303 21.541l.262-.07c0-.023-.012-.033-.021-.033-.115.044-.222.053-.329.072z"/></g><g><path fill="#fff" d="M45.647 21.33h.028c.007 0 0-.01 0-.01z"/></g><g><path fill="#fff" d="M50.592 21.288a.425.425 0 0 0 .281-.103l-.039-.032c-.096.052-.164.104-.253.135z"/></g><g><path fill="#120f0e" d="M47.75 23.645c-.016-.05-.065-.05-.065-.089l.065-.083c.067-.066.188 0 .27-.066h.037v-.023s.027.023.05 0h.046c.02-.029.02-.029 0-.029h.037l.082-.038h.032v-.067h.02v-.035c0 .035.015 0 .05 0l.017-.017s.03.017.03 0h-.015v-.034c.016 0 .016.034.067 0 0-.019 0 0-.051-.019l.103.02c0-.02-.017-.02 0-.02h.046v-.05h-.098c-.416.07-.605.394-1.021.43-.021-.02-.071-.036-.087-.052-.014-.089.05-.089.05-.118-.034-.038-.085-.072-.085-.14h-.03c-.034.035-.065.035-.085.035-.033.033-.118 0-.17-.035-.014 0-.014.035-.032.035-.066.134-.217 0-.336.067-.016 0-.016.038-.016.067.016.023.016.12-.05.172-.052.074-.2.09-.301.038-.07-.019-.102-.07-.136-.187-.016-.052.034-.209.066-.262 0-.05 0-.05-.016-.068-.066-.05-.17-.066-.221-.018a.985.985 0 0 1-.282.258c-.035 0-.035-.034-.087-.034-.051-.119 0-.256 0-.342-.051-.035-.051-.035-.08-.035-.065-.019-.05-.139-.117-.19-.154.051-.22.051-.32-.05-.064-.017-.1-.089-.1-.174a.4.4 0 0 1 .15-.17c.05 0 .102-.033.116-.033v-.036h-.014a.408.408 0 0 1-.134-.223h-.082v-.019c-.154 0-.254-.085-.356-.136l-.033-.102.135-.102c-.067 0-.084-.019-.135-.035-.031-.038-.1-.12-.066-.208 0-.07.117-.07.134-.136h-.017c-.117-.105-.286 0-.37-.105-.051-.016-.051-.137-.051-.203.02-.106.135-.106.169-.203-.034 0-.034 0-.034-.023-.083-.119-.135-.255-.103-.393-.05 0-.134 0-.198-.055-.152-.103-.187-.273-.187-.409l-.15-.052v-.085a.732.732 0 0 1-.184-.136c-.017-.055-.031-.142-.017-.173l.184-.054c0-.067-.031-.117 0-.154.035-.082.066-.082.119-.133v-.055l-.067-.086v-.015c-.083-.089-.052-.258 0-.379.014-.03.115-.12.2-.05.032.02.032.101.084.135h.018c.788 2.128 4.465 5.736 8.29.822.069-.152.137-.289.2-.46.018-.157.102-.275.12-.396 0 .188-.12.43-.12.685 0 .02 0 0 .018 0l.22-.787.015.02-.067.41h.033c.137-.207.137-.499.165-.688l.05.015c-.01.174-.146.431-.078.634l.078-.289h.035l-.151.535.15-.347h.019l-.17.516c0 .031-.03.05 0 .05.067-.1.152-.27.189-.41h.014l-.232.754v.016l.18-.289h.038c-.02.118-.122.188-.15.31-.068.136-.137.272-.188.391a1.11 1.11 0 0 0 .266-.392c.035 0 .035.016.035.016 0 .121-.085.152-.113.257-.17.208-.254.446-.472.618.284-.07.369-.359.54-.566 0 0 .01 0 .01.035-.181.328-.385.583-.653.91.103-.085.237-.242.32-.327l.02.051c-.184.276-.44.534-.71.67.236-.07.422-.24.589-.357l.018.014c-.134.155-.303.273-.456.43-.15.121-.267.24-.434.273-.02 0 0 0 0 0 .1 0 .235-.034.302-.117.132-.035.217-.14.35-.223.02 0 .02 0 .02.015-.153.173-.285.208-.42.361a3.558 3.558 0 0 1-.655.293s-.032 0 0 0c.267 0 .555-.106.739-.242v.051c-.17.104-.388.238-.606.363-.2.067-.417.187-.653.222.34.066.653-.103.923-.258.016.036.016.051.016.051-.384.207-.94.412-1.424.463h.015c.27 0 .503-.05.723-.118l.049.067c.017 0 .017.02.017.02l-.134.291c-.152.068-.266.171-.421.223-.016 0-.032 0-.032-.035l.082-.12-.014-.018h-.103l-.085.307a.802.802 0 0 1-.418.16c-.165.031-.32.031-.437-.04v-.015c.136-.016.324-.105.437-.172-.082-.034-.204-.067-.301-.102-.216-.07-.453-.204-.672-.204.167.084.404.134.62.24v.066c0 .038-.051.067-.084.067-.266.09-.47-.22-.753-.22.117.086.335.153.504.22v.023c0 .066-.017.097-.068.136-.153.102-.386.051-.586-.054a.495.495 0 0 0-.271-.134c-.216.052-.35.29-.606.29zm-3.354-3.467s.015 0 .015-.022c0 .022.018.022.018 0v-.017l-.068-.05c-.015.035 0 .05 0 .067z"/></g><g><path fill="#120f0e" d="M44.507 19.795h-.009v.014h.009z"/></g><g><path fill="#cea44c" d="M43.827 19.742c-.046-.036-.1-.09-.13-.123a.294.294 0 0 1-.037-.12c.037-.016.067-.016.067-.016.086 0 .121 0 .204.068zm1.198 2.196a.258.258 0 0 1-.205-.1l-.016-.035a.408.408 0 0 1 .251-.12c.066.083 0 .155 0 .255zm.702 1.324c-.015-.034-.035-.054-.035-.054 0-.101 0-.187.035-.257.066 0 .148.035.256.07-.085.086-.155.187-.256.24zm1.343-.104c-.016-.067-.085-.152-.1-.24v-.017c.125.017.207.125.301.122-.003.002-.003.007-.003.017 0 .032.02.032 0 .05h-.029c0 .017.03.017.03.017h-.048c.018 0 .018 0 .018.05l-.018-.05-.019.05h-.016v.018h-.032zm.218-.137a.12.12 0 0 1-.017.002c.003-.002.008-.002.017-.002zm.134.24c-.034-.053-.034-.154.017-.154v-.016l.05.016h.018l.017.068-.017.033h.017s0 .02-.017.02c0 0 0-.02-.019-.02v.054z"/></g><g><path fill="#b9a17a" d="M47.489 23.502c-.035-.02-.067-.02-.106-.086h.039a.437.437 0 0 1 .217 0v.066zm.284.086l-.015-.02c0-.032.015-.054.015-.066.03 0 .05 0 .099-.02.068 0 .169.02.218.07-.067.05-.183.05-.317.05zm1.108-.02c0-.016-.018-.016-.035-.032.017 0 .035-.022.052-.054a.502.502 0 0 1 .332-.066v.066c-.066.087-.23.087-.35.087zm.437-.24c.015 0 .05 0 .083-.067.05 0 .132-.036.186.03v.075l-.186.032z"/></g><g><path fill="#725c56" d="M48.729 23.416a.33.33 0 0 1 .134-.018l-.101.018zm.134-.018zm0 0zm0 0h.014v-.032l-.183.05.117-.05c-.049 0-.117.032-.15.032l.068-.07h-.035l-.101.038c.017-.038.017-.038.033-.038h.016c.019-.036 0-.036 0-.036l-.049.036.033-.067h-.05c.017-.036.066-.053.085-.053.185.017.334.12.468.19h-.185l-.118.018zm.501-.137h-.017c.017 0 .017 0 .017-.036l-.032.036v-.036h-.117c0-.017.013-.017.013-.017h-.013l-.017-.034-.049.034h-.02c0-.034-.016 0-.016 0v-.034h-.036l.036-.016h-.067c.017 0 .017 0 0-.054 0 0 0 .054-.015.054-.016-.024-.018-.038-.015-.045l-.072.045c0-.054.036-.054.036-.054h-.086v-.017c.033-.016.05-.016.101-.016.154.033.319.087.452.137zm-.602-.482h.064l.006-.007a.113.113 0 0 0-.006.04c-.015 0-.015.034-.047.034zm.072.008l-.002.002.002-.002zm.197-.181c.032 0 .082 0 .082.036l-.05.032v.05l-.017.024-.015-.024c-.051-.05-.087.024-.104.024l-.033.03h-.017c-.02 0-.035 0-.043.01.048-.054.098-.132.197-.182zm-1.045.43l-.03-.015.03-.035c-.03 0-.03.035-.046.017l.046-.033-.03-.02c-.016-.031-.016.02-.037 0l.021-.031h-.037c-.032 0-.032 0-.032.032v-.086c-.052 0-.052.032-.052.032l-.015.022.015-.054h-.015s0 .032-.035 0c0-.02.035-.02 0-.052v.033c-.017-.033-.017-.033 0-.033v-.034a.36.36 0 0 1 .217.067l.05.175h-.05zm-.046-.066l.016-.02s0 .02-.016.02zm-.439.428c-.016 0 0 0 0 0l.535-.294v-.017c.021 0 .021-.016.052 0 .086 0 .102-.051.152-.084a.282.282 0 0 1 .083-.033.113.113 0 0 1 .068.05h-.068v.016l-.083.035v.016h-.05l-.016.017h-.086v.054h-.031c-.021 0-.021 0-.021.016h-.05v.034s-.03-.034-.03 0h-.037v.017h-.016c-.032.036 0 .036 0 .036-.032.03-.032 0-.084 0v.03h-.015c0 .037 0 .037-.035.037l-.099.038s.015 0 .015.032z"/></g><g><path fill="#fff" d="M48.562 23.355l.015-.022c-.015 0-.015.022-.025.022z"/></g><g><path fill="#fff" d="M48.578 23.095l.024-.025s-.034.025-.024.025z"/></g><g><path fill="#fff" d="M47.489 22.935h.01"/></g><g><path fill="#fff" d="M49.928 22.89h.021"/></g><g><path fill="#fff" d="M49.408 22.89h.01s-.01-.012-.01 0z"/></g><g><path fill="#120f0e" d="M47.396 22.731h.013l-.013-.039z"/></g><g><path fill="#120f0e" d="M47.47 22.706v-.014s-.024-.025-.035-.025c-.023.025.011.025.035.04z"/></g><g><path fill="#120f0e" d="M46.108 22.569c.009 0 .009 0 0-.012"/></g><g><path fill="#120f0e" d="M46.197 22.554v-.027c0-.01-.023.027-.036 0z"/></g><g><path fill="#fff" d="M46.371 22.502h.021v-.025l-.035.025z"/></g><g><path fill="#120f0e" d="M46.246 22.477h.013v-.013c0-.025 0-.025.022-.025.013 0-.022 0 0-.013v-.012h-.022z"/></g><g><path fill="#120f0e" d="M46.337 22.44v-.01s-.01-.013-.01 0z"/></g><g><path fill="#120f0e" d="M46.156 22.384h.024c0-.025-.024 0-.024 0z"/></g><g><path fill="#120f0e" d="M46.603 22.34h.01c0-.013-.01-.013-.01-.013z"/></g><g><path fill="#fff" d="M46.733 22.34v-.013h-.035s.014.013.035.013z"/></g><g><path fill="#120f0e" d="M47.532 22.34s0-.013.02-.013c0 0 0 .013.009.013-.008-.013-.008-.036-.03-.036-.013.023-.013.023-.013.036z"/></g><g><path fill="#fff" d="M46.66 22.257h-.013"/></g><g><path fill="#f2ee0b" d="M50.646 22.196l.314-.085c0-.026-.012-.04-.02-.04-.141.053-.27.065-.398.087z"/></g><g><path fill="#120f0e" d="M47.572 22.129l.01-.012h-.01z"/></g><g><path fill="#fff" d="M48.348 22.08h.01c.014 0 .014-.013.014-.039h-.024c-.024 0 0 .026-.024.038z"/></g><g><path fill="#fff" d="M45.055 21.942h.035c.01 0 0-.013 0-.013z"/></g><g><path fill="#fff" d="M46.313 21.952c-.035 0 0-.017-.035-.017h-.034v-.05h.02v-.054h.014l-.015.054.015.016h.035zm.017.05s-.017-.032 0-.032c.033.032 0 0 0 .032zm.05-.117h-.05v-.054h.033v.054h.017c.031 0 .031.016.031.016v.034z"/></g><g><path fill="#fff" d="M46.337 21.935l-.023-.05s0 .013-.023.013c0 .011.023 0 .023 0 .012.011.012.037.012.037 0 .014 0 0 .011 0z"/></g><g><path fill="#f2ee0b" d="M50.995 21.89c.113.014.241-.046.336-.124l-.046-.034c-.119.06-.197.124-.303.159z"/></g><g><path fill="#f2ee0b" d="M51.368 21.62l.29-.124v-.013c-.084-.025-.142.065-.222.089-.035.013-.068.013-.083.027 0 0 0 .02.015.02z"/></g><g><path fill="#31af55" d="M44.863 20.478v-.016h-.049v-.037c0-.014.05-.014.05-.014v-.035h.051s0-.017.033-.017l.034.017c0-.017-.034-.017-.034-.055v-.012c0-.02-.05-.02-.05-.056 0-.034 0 0 .017 0a5.473 5.473 0 0 0-.2-.344c-.017.037-.068.037-.068.086 0 .071.016.137.084.173.034.02.068.02.083.036 0 .105-.083.172 0 .258zm-.549-.157h.033c0-.012.015-.012 0-.012h-.022c-.049 0-.078-.09-.128-.122h.034c.016 0 .016.017.016.032h.052v-.032h.063c-.015 0-.015.017-.015.017l-.033.05h.011l.037.035c.034-.036 0-.036 0-.07v-.015c.034-.017.034 0 .048 0 .023 0 .023-.017.023-.017v.017h.03l-.03-.017.03-.035h-.03v-.07c0-.016-.037 0-.07-.016 0-.02.033-.02.033-.052l.037.032v-.032l-.07-.105.07.037.061-.037h-.03c-.03 0-.03 0-.03-.015v-.035h.06a.859.859 0 0 0-.366-.516h.017a.477.477 0 0 1 .217.188c-.015-.117-.063-.188-.115-.27-.067-.138-.138-.227-.189-.36 0 0 0-.02 0 0 .173.172.267.426.375.65v-.07a10.795 10.795 0 0 1-.272-.7h-.033c-.07-.02-.07-.14-.167-.14h-.12c-.016.068-.032.14 0 .24 0 .051.083.103.12.141.015.012.048.066 0 .152-.037.035-.12.035-.136.102 0 0 0 .067.015.067.102.138.305.207.27.398-.052.118-.149.168-.1.273.048.085.048.173.135.205h.052c.034 0 0 .034 0 .07h.05v.02zm.048-.134zm.071-.105c.03 0 .03-.016.061-.016v.016l.04.001c-.016-.011-.04-.023-.04-.037-.03 0-.03 0-.06.02zm.1.001c.008.006.013.011.013.016 0-.01 0-.014-.012-.016zm.485 1.582c.035-.02.035-.02.035-.035l-.035-.02.1-.122h.017v-.012c-.018 0-.018.012-.082.012v-.05c.064.02 0 0 .064 0-.064-.016-.064-.016-.064-.066h-.035v-.02h.035v-.05h-.035v-.05l.035-.053s.064 0 0 0h-.035l.035-.015c0-.05-.035 0-.035 0v-.07l-.07-.054c-.05 0-.085-.015-.134 0-.083-.015-.18-.015-.25-.069v-.03l.334.03c-.167-.202-.334-.359-.404-.566.14.173.237.364.404.515 0-.15 0-.222.017-.342h.033v.257l.034.173.036.032c0-.015 0-.032-.036-.069 0-.03.036-.03.036-.03l.035-.074v-.015h.064c0-.017 0-.017.018-.017l.035-.066c.048 0 .048.016.048.016v-.016h.064v-.14c-.013-.017-.05-.05-.064-.103a.459.459 0 0 0-.2-.084l-.036.016c-.034.018-.084.068-.168.068H44.8c-.084-.068-.1-.187-.2-.237-.053 0-.136 0-.166.05-.07.052-.07.137-.07.187.07.103.183.118.201.243-.018.098-.07.098-.13.151-.024 0-.072.021-.072.051v.142c.071.051.132.051.184.051.052 0 .117 0 .22.015a.436.436 0 0 1 .048.103c0 .05-.015.05-.015.07l-.152.066v.088a.495.495 0 0 0 .268.14zm.03-.617l.005-.003c0-.009 0-.004-.005.003zm-.03.012c.017 0 .025-.007.03-.012zm.385 1.168c0-.052.034-.12.085-.137l.016-.05s0 .05.017.05h.066v-.05h.047v-.017c0-.019.055.017.055 0v-.019h-.055l-.113-.05v-.017h.033l.202.016h.016c.015 0 .015 0 .015-.016h.036l-.036-.053h-.03v-.05h.015a.778.778 0 0 0-.138-.24l-.352-.107c.121-.03.222.038.325.038-.103-.174-.255-.327-.338-.48v-.018c.013.017.013.032.083.07.117.101.202.274.282.39.055-.116 0-.237.072-.304a.728.728 0 0 0 .117.65h.12c0-.017 0-.053-.003-.053h.038l.03-.172v.157h.1v.015s-.012 0-.029.017l.043.03v-.026c0-.02.04-.02.052-.02l.033-.016c.017.015 0 .015 0 .036v.032h.032v-.068c-.015-.034-.015-.052-.032-.052v.018l-.033-.018v-.034h.033c0-.015 0-.015-.033-.015v-.02h.033l.017-.119c0-.068-.017-.088-.05-.154-.099-.07-.186 0-.286 0-.065-.07-.065-.239-.132-.294l-.05-.018c-.072.018-.099.073-.185.053-.068-.053-.033-.226-.118-.24-.12-.018-.185-.018-.233.014a.533.533 0 0 0-.053.226c.018.071.034.086.101.086a.287.287 0 0 0 .064.103c0 .07 0 .12-.05.136h-.014l-.048.05c0 .156.267.192.196.346-.014.104-.097.12-.148.141 0 .03-.048.066-.048.066.048.088.112.135.182.187zm.485-.394v-.032s0 .01.052.009c-.004 0-.016.023-.052.023zm.191-.036l-.024-.017.02.021a.116.116 0 0 1 .004-.004zm.128.087c0-.05 0-.05-.033-.05h-.041zm-.074-.05l-.01-.008v.007zm-.126 1.168c.013-.069.005-.132.028-.189-.013.002-.016.008-.028.031v-.067c-.019 0-.019 0-.019.035v.032h.02c.015 0 0 .02 0 .052zm.048-.19a.093.093 0 0 1-.014-.012.18.18 0 0 0-.006.013h.02zm-.014-.012a.176.176 0 0 1 .014-.023h.02c0-.03.02-.03.032-.03v-.075l.015-.014.052-.053v.053h.033v-.018l.032.018.02-.018c-.02-.035-.02 0-.035-.035l-.017-.015h.052c.017 0 .051-.034.051-.034h.051v.034h.015v-.034h-.015v-.035h.015c-.015 0-.015 0-.015-.017.015 0 .05-.019.05-.054l-.035-.03h-.015l-.05-.052.065-.018c0-.018-.05-.018-.066-.018-.05-.018-.103-.018-.136.018a.94.94 0 0 1-.167.171v-.07c.048-.032.1-.083.154-.119-.106-.018-.173.018-.286.036-.103.082-.119.222-.24.272v-.05c.086-.069.121-.105.137-.17-.083.065-.25.03-.369.065h-.05c.1-.117.254-.035.403-.117l-.235-.074v-.032c.086 0 .185.088.251.106.116-.036.235-.106.35-.106l-.134-.134v-.022c.106.07.186.188.322.156h.016c0-.035-.016 0-.05 0 0-.015-.017-.015-.017-.035h.067c.035 0 0 .02.035.02v-.02h-.035l-.016-.052s0 .02-.034 0c0 0 0-.047.034-.047l-.034-.038.034-.05c-.07-.087-.188-.207-.303-.207-.065.051-.132.07-.132.141 0 .066-.037.116-.088.154-.08.066-.2 0-.283 0-.035 0-.05.047-.05.1 0 .02 0 .086-.017.122-.034.018-.085.018-.155.018-.05 0-.13 0-.147.051-.018.066-.082.137-.018.186.018.053.053.053.152.067.083 0 .168-.067.22-.014.015.014.032.088.032.12l.033.066c.033 0 .08.02.135 0 .067-.032.098-.172.2-.186.09.013.114.1.152.142zm.335.751c.067 0 .12 0 .183-.05.051-.104 0-.242.085-.295.12-.033.22.123.32.018.05-.05 0-.118-.018-.154-.014-.05-.067-.086-.067-.152.014-.054.053-.074.067-.106.035 0 .12.032.151.032.048.074.102.105.137.105.032-.03.032-.03.052-.03l.015-.055-.035-.052-.05-.035-.034.035h-.037l.037-.035h-.117l-.102.035c-.017 0-.017-.035-.017-.035s0 .035-.014.035l-.053-.035c-.03.035-.083 0-.083 0-.033 0-.033 0-.033-.03h-.05c-.069.03-.036.15 0 .237.015.036.015.122.05.172a.574.574 0 0 1-.119-.292c-.103.138-.169.342-.216.533-.017-.19.067-.362.15-.5l-.019-.033c-.064.054-.099.105-.148.12v-.015c.064-.105.218-.125.284-.242v-.055h.017l-.035-.067h-.033v-.015c.033 0 0-.069.016-.069h.017l-.017-.036c.017-.035.035 0 .035-.035.017-.017-.018-.017-.018-.03l.051-.052h-.016v-.018l.016-.036h-.05l-.018-.02-.165.038c-.02.036 0 .036 0 .087l.115.102v.07c-.05.014-.069.05-.135.067-.047.014-.114.014-.216.088-.085 0-.152.031-.184.098-.02.074 0 .105.02.125.08.033.164.015.215.066.051.071.016.121 0 .171a.213.213 0 0 0-.07.208c0 .07.02.121.086.137zm.956-.879l-.066-.168c-.067-.07-.169-.054-.285-.054l-.018-.017s.018 0 .018-.014h.234c-.016-.125-.15-.244-.252-.329-.115-.05-.235.016-.334 0 0 0-.019 0 0 0 .048-.05.167-.05.22-.05a1.283 1.283 0 0 1-.406-.41v-.022l.017-.014c.117.171.252.343.433.41l-.045-.239h.016c0-.034.015-.034.015 0l.067.258c.1.083.236.152.27.271v-.254c.018 0 .018 0 .018.05.032.137.052.278.117.431.03-.102.08-.207.133-.346.017-.085.017-.17-.033-.222-.02-.05-.087-.069-.165-.05-.07.034-.104.05-.189.034-.032-.035-.052-.053-.052-.104.02-.032.02-.068 0-.068l-.232-.1c-.017.014-.1.014-.136.014-.067-.139-.202-.154-.316-.242-.05.02-.102.038-.122.088v.015l-.015.054c.015.05.015.12.086.171.101.036.25.068.267.172a.103.103 0 0 1-.082.103c-.035.05-.119 0-.169.05 0 .038.035.085.05.085.035.02.035.052.052.052.032 0 .067.035.113.02.103-.02.255-.072.338-.02a.17.17 0 0 1 .067.123.56.56 0 0 1-.218.171l-.016.07a.427.427 0 0 0 .136.081c0 .055.016.074.045.074zm1.33.363c.03-.033.096-.117.03-.19 0-.033-.03-.068-.03-.068-.053-.05-.119-.105-.138-.172 0-.084.118-.1.098-.237-.029-.036-.098-.036-.149-.074-.082-.032-.099 0-.166 0h-.118c-.015 0-.033-.047-.083-.067-.018-.099 0-.187-.049-.223-.037-.05-.119-.067-.19-.05-.13.05-.197.136-.349.24h.05c.067.033 0 .033 0 .033 0 .02.015.02 0 .035h-.05l-.017.052c0 .018.017-.02.017 0 .05.018 0 .018 0 .036 0 0-.017 0-.034-.018v.018l.034.018h-.017s.017 0 .017.051v.014c.22-.065.3-.186.467-.258l-.066.087-.167.106c.066.051.167 0 .268.051a.531.531 0 0 0 .22.014c.1 0 .182.052.284 0 0 .052-.05.071-.102.088-.048 0-.115-.017-.182-.017.1.086.165.242.284.34 0 0 0 .02 0 0-.133-.032-.2-.239-.335-.323 0 .07.051.137 0 .256h-.015c.015-.119 0-.256-.086-.273a.538.538 0 0 0-.418-.054c.032.054.1.071.1.14 0 .015-.018.015-.018 0-.05-.069-.082-.086-.169-.086l-.015.017h-.117v.07s.033 0 .033-.035c.017 0 .017.034.034.034 0 .015-.017.015-.017.015h-.05l-.02-.015v.015s.02.035 0 .053c-.013 0-.013.07-.013.088v.031h.013c.02 0 0 0 0 .035l.053-.035v.035h-.033l.067.032c.117.02.184-.032.251-.067.05-.05.133-.119.17-.05.015 0 .015.02.015.02.082.03.082.202.134.273h.086c.066-.036.098-.124.165-.102.066.051.083.152.185.152 0 .016.02.016.02.016z"/></g><g><path fill="#120f0e" d="M44.782 20.339h-.021v.014h.021z"/></g><g><path fill="#f0ee0b" d="M52.235 20.15c0-.02-.049 0-.067-.02-.033-.066-.033-.136-.033-.22.1-.156.134-.292.2-.448 0 .12-.03.242 0 .328.035.12.067.187 0 .274v-.02l-.066.086c0 .02 0 .02-.034.02zm.254-.36c-.037 0-.037-.02-.037-.051-.05-.156.052-.327.103-.466-.05.153.085.36-.05.497zm.182-.207c-.03-.051-.048-.121-.03-.19.08-.185.145-.323.231-.462 0 .1.037.24 0 .392-.015.089-.034.225-.152.295zm-.03.394c-.033-.034-.033-.034-.086-.067 0-.02.053-.12.068-.156.097-.104.215-.171.318-.292-.032.12-.069.188-.103.292-.052.102-.118.189-.198.223zm-.239.276c0-.053 0-.067.021-.102.081-.138.297-.087.415-.208a1.188 1.188 0 0 1-.198.273c-.032.037-.085.089-.15.089a.093.093 0 0 1-.088-.052zm-1.087 1.116c0-.016-.017-.016-.017-.07l.05-.05a.308.308 0 0 1 .203-.067h.05l-.086-.052v-.034c.102-.212.37-.137.504-.294.05-.067.198-.156.198-.207 0-.101.052-.117.087-.173.185-.05.336-.104.436-.206-.069.156-.132.329-.288.43-.117.07-.183.07-.235 0l-.066.07c-.147.084-.248.332-.411.46.074-.012.147-.028.21.006-.18.117-.333.187-.533.187zm.376-.187h-.074a.338.338 0 0 0 .073 0zm-.009-.312c-.015 0-.015-.014-.015-.068-.017-.035.015-.086.084-.156.25-.101.384-.274.518-.46-.134.186-.25.409-.37.6-.046.084-.1.098-.148.098-.02 0-.069 0-.069-.014zm-.265.205v-.191c.112-.15.25-.34.436-.512l.148-.12c-.017-.036-.017-.036-.052-.036l-.064.089c0-.09.035-.12.064-.175.052-.085.087-.187.138-.22-.019.103-.019.22-.019.306-.032.089-.084.19-.183.243l-.032-.052c-.17.138-.236.36-.302.619-.036.03-.07.085-.119.07-.015 0-.015-.021-.015-.021zm-.236.174c-.037-.053 0-.138.014-.192.051-.098.153-.201.237-.271-.084.098-.068.289-.084.41-.033.053-.065.103-.117.103-.036 0-.05 0-.05-.05zm-.288.237c0-.031-.017-.05-.017-.066.017-.171.136-.31.268-.394-.065.156-.065.327-.116.429l-.118.03zm-.267.19c-.032-.015-.032-.05-.032-.135.082-.105.201-.242.282-.345a.268.268 0 0 1-.052.157c0 .083 0 .239-.046.308-.034.016-.086.053-.137.053zm-.353.259c0-.034 0-.05-.032-.104.082-.19.27-.376.4-.462-.114.104-.114.345-.2.516-.016.05-.099.05-.118.067zm-.368.155c-.049-.12 0-.19.032-.26.133-.116.253-.223.386-.29-.082.12-.119.345-.216.48-.02.07-.068.106-.153.106-.017 0-.032-.02-.049-.036zm-.403.275c-.016 0-.052 0-.052-.016-.05-.035-.05-.124 0-.175.136-.172.282-.343.487-.446-.135.157-.135.398-.236.536-.082.085-.115.1-.199.1zm-.437.189c-.015-.032-.015-.052-.015-.103.081-.277.35-.5.57-.62a1.244 1.244 0 0 0-.288.534c-.05.086-.065.223-.18.24-.036-.017-.07-.017-.087-.051zm-.303.19c-.067-.02-.099-.07-.117-.09-.017-.015-.032-.05-.017-.1a1.26 1.26 0 0 1 .704-.62c-.216.173-.282.415-.434.654-.017.05-.07.136-.136.156zm2.99-1.308c.047-.067.101-.067.133-.083.035-.054.1-.054.116-.104l-.25.12v-.016c.048-.054.184-.104.25-.171v-.052c.035-.02.051-.034.051-.073-.016-.016-.033-.016-.033-.031.033-.086.15-.142.167-.24h-.018l-.132.098v-.014c.132-.154.334-.103.52-.154.02 0 .032-.01.04-.023-.055.097-.103.167-.173.19-.1.107-.188.174-.288.174l.17-.173-.218.157v.016c0 .018-.035.054-.05.073 0 0-.036 0 0 .052.098 0 .232-.071.333-.086-.135.1-.283.257-.435.34zm.871-.79a7.063 7.063 0 0 1-.02.035c.009-.018.013-.035.02-.035zm-.02.035zm-1.052 1.098c-.022-.015-.036 0-.036-.015l.086-.087h-.05c-.022 0-.036.05-.07.087-.035 0-.064 0-.064-.036.063-.086.233-.101.334-.204.148.017.285-.038.417-.088-.116.156-.184.206-.315.24a1.027 1.027 0 0 1-.302.103zm-.17.223l-.017-.032c-.08.032-.183.12-.285.12-.017.017-.05 0-.067-.053l.405-.206c.098 0 .184.054.265 0 .07.054.088 0 .117 0-.099.104-.234.12-.336.206-.099 0-.18.053-.282.07zm-.637.43c.08-.015.166-.067.284-.083 0-.02.034-.02.034-.053h-.034c-.135.053-.233.069-.402.12-.032 0-.099 0-.115-.051.313-.14.603-.191.952-.191h.052c-.217.122-.487.258-.737.258zm-.268.223c.081-.05.165-.016.252-.067l-.036-.034c-.165.034-.35.1-.488.05.037-.016.103-.016.12-.016.233-.171.486 0 .704-.034a1.801 1.801 0 0 1-.47.1zm-.487.31l.05-.048h.048l.103-.024c0-.028 0-.051.014-.051h.037l.032.05v-.05h.05l.02.023c0-.023-.02-.023 0-.023h.015s0 .023.015 0c.035 0 0-.031.035-.031.218 0 .453-.035.654-.035l-.133.208c-.053.015-.105.015-.15.015h-.575zm.37.363c-.272-.071-.557-.121-.84-.224-.152-.07-.289-.105-.403-.156l-.169-.031-.049-.024-.017.024h-.035l-.018.067h-.046c-.02.015 0 .033-.02.033v-.051l.22-.155.051.03.017.024h.031l.035.028v.024h.047v-.052c.04 0 .04.052.054.052.013 0 0 0 0 0h.05c.014 0 .05 0 .065.03.017 0 .035 0 .035-.03l.083.049c0-.018.052 0 .068-.018 0 0 .018 0 .018-.031 0 0 0 .03.05.03.27.052.585.087.89.123l-.103.258zm-1.01-.463c-.032-.023-.119-.023-.146-.023-.04-.031-.04-.066-.04-.168 0-.07.054-.086.118-.086.338.017.673.188 1.026.086-.103.07-.153.102-.237.102a2.858 2.858 0 0 1-.72.089zm.32-.277c-.05 0-.083-.034-.133-.066 0-.036 0-.105.05-.157.216-.07.484.052.737.086.02.035.118.035.188.035-.07.036-.153.036-.188.036a1.87 1.87 0 0 1-.59.083c-.032 0-.042 0-.065-.017zm.32-.24s0-.018-.035-.018c-.017-.086 0-.156.07-.156.046-.048.13-.067.217-.067.132.019.316.137.487.137a.885.885 0 0 1-.252.105c-.134.016-.235.016-.369.016zm.487-.222c-.05 0-.103-.02-.118-.09-.016-.015.015-.084.067-.101.216-.104.451.017.654.017-.169.138-.35.174-.552.174zm.4-.241c-.052 0-.066 0-.098-.054 0 0-.034 0-.034-.032-.016-.035 0-.085.034-.122h.046c.188 0 .357.05.491.037-.084.05-.17.117-.287.17zm.136-.243v-.035c-.017-.066 0-.121.03-.152.072-.035.153-.02.256-.02.082 0 .182.02.267 0h.085l-.033.02c-.066.018-.102.069-.137.086a.592.592 0 0 1-.366.1zm-.942 1.752h.017s.067.019.067 0h.087v.019c-.154.07-.252.07-.385.086zm.571-.24c.035-.05.035-.05.051-.05h.052c0-.016.034 0 .034 0l-.102.05zm-2.013-.84l-.05-.07a1.12 1.12 0 0 1 .421-.292c-.118.138-.217.273-.336.397-.018 0-.018-.035-.035-.035zm-.102-.188c0-.036-.05-.09-.1-.156h.05c.05-.018.137-.035.187-.018l.018.018c-.018.067-.018.12-.036.137-.032.019-.048.067-.1.067-.019 0-.019 0-.019-.048z"/></g><g><path fill="#120f0e" d="M44.921 21.146h.027l.008-.01s-.035 0-.045.01z"/></g><g><path fill="#120f0e" d="M44.921 21.114h.027c-.027-.011-.027-.011-.037-.011z"/></g><g><path fill="#fff" d="M45.502 20.97c0-.011-.01-.024-.01-.05 0-.013.01-.013.01-.013 0-.025.022-.025 0-.037l-.045.037c0 .013.035.013.035.052l-.025.012h-.01c.01.02.035-.012.045 0 0 0 0 .02 0 0z"/></g><g><path fill="#fff" d="M45.527 20.946h.013v-.04l-.013.014z"/></g><g><path fill="#fff" d="M45.346 20.799c0-.01-.015-.01-.015-.01-.022 0-.022 0 0 0 0 0 0 .01.015.01z"/></g><g><path fill="#fff" d="M43.895 19.793v-.051l.036.015.017.036zm.068 0v-.036h.05v.017c0 .019 0 .019-.033.019zm-.015-.141h.015v.054zm.081.054l-.016-.054h.034v.054zm-.08-.087c0-.031 0-.031.014-.031v.03zm.55.376c-.033-.015 0-.015 0-.05v-.031h.05v.032zm.05-.081v-.14c-.05-.068-.116-.137-.05-.241l.05.104v.105c0 .015 0 .05.02.05v.068zm1.866 1.976v-.056c.015 0 .015.056.015.056zm-.52 1.01c0-.054-.02-.054 0-.087h.048c0 .033.037.033 0 .055zm2.282-.671c.014-.033.014 0 .065-.033v.033zm.201-.033v-.02c.015-.047.015-.047.015 0v.02zm-.099 0v-.02h.048v.02l-.018.033zm0-.067v-.037h.048v.037zm.1-.088v-.035h.014s.016.019.016.035zm.047.135c.05-.047.05-.047.05 0 0 .02 0 .02-.05.02zm-.839.775c0-.032.052-.032.052-.032v.05h-.052zm.052.085c0-.015 0-.015-.052-.015 0-.018 0-.018.052-.018 0 .018.035.018 0 .018zm.102.122l.017-.155.116.088-.116.067zm-1.98-.312l.013.055c0 .018-.014.018-.014.018zm.064.073c0-.051-.034-.073 0-.073h.017c0 .022.033.055 0 .073zm-.034-.106c0-.034.034-.034.034-.034 0 .034 0 .034-.034.034zm.084-.065h.02c0 .03.048.03 0 .03h-.02zm.12.255c-.015-.033-.052-.033-.052-.084h.052zm-.82-1.065c0-.034.05-.034.05-.034 0 .034.013.034.013.034l-.014.017zm.111-.034c-.014 0-.014-.014-.014-.014v-.056c.014 0 .014.056.014.056zm.07-.07l-.07-.031h.07zm-.07-.068c-.014 0-.014 0-.014-.034v-.017c.014.017.014.017.014.05zm-.112.016l.05-.016c.014.016.048.016.048.037-.034.03-.034.03-.048.03zm-.035-.016s0-.034-.018-.051v-.034h.018c.013 0 .035.034.035.085zm-.018.068h.018c.013 0 .035 0 .035.056h-.035zm.606.19c0-.018.033-.018.033 0zm-.22-1.137v-.028c.003.013.008.02.017.028zm0-.028c-.015 0-.05.028-.067 0v-.07h.017l.035.016.014.054zm0 0zm4.816 1.562c.02-.051.118-.051.153 0zm-.334.238s-.035 0-.052-.017h.085c.048-.035.132-.035.151.017zm2.012-1.697v.067l-.202.104zm.303-.653a.407.407 0 0 1-.037.047zm-.037.047l-.23.294c.026-.114.152-.207.23-.294zm-.347.14l.132-.172s-.016.036 0 .053c-.016.034-.05.105-.117.12zm-.19.137l.123-.136-.083.102-.019.034z"/></g><g><path fill="#cea44c" d="M52.814 17.608a4.417 4.417 0 0 1-4.409 4.406 4.42 4.42 0 0 1-4.41-4.406 4.422 4.422 0 0 1 4.41-4.41 4.42 4.42 0 0 1 4.41 4.41zm-8.505-.004a4.105 4.105 0 0 0 4.1 4.098 4.106 4.106 0 0 0 4.095-4.098 4.104 4.104 0 0 0-4.095-4.093c-2.263 0-4.1 1.84-4.1 4.093z"/></g><g><path fill="#244d9c" d="M48.413 14.013a3.597 3.597 0 0 1 3.588 3.59 3.602 3.602 0 0 1-3.588 3.593 3.605 3.605 0 0 1-3.599-3.594 3.6 3.6 0 0 1 3.6-3.589z"/></g><g><path fill="#3d94c7" d="M48.415 13.367a4.242 4.242 0 0 1 4.23 4.237 4.24 4.24 0 0 1-4.23 4.236 4.246 4.246 0 0 1-4.244-4.236 4.248 4.248 0 0 1 4.244-4.237z"/></g><g><path fill="#ec1e27" d="M48.41 14.73a2.879 2.879 0 0 1 2.873 2.874 2.88 2.88 0 0 1-2.874 2.874 2.88 2.88 0 0 1-2.876-2.874 2.879 2.879 0 0 1 2.876-2.874z"/></g><g><path fill="#e01f26" d="M48.406 14.085a3.526 3.526 0 0 1 3.52 3.522 3.525 3.525 0 0 1-3.52 3.516 3.526 3.526 0 0 1-3.52-3.516 3.526 3.526 0 0 1 3.52-3.522z"/></g><g><path fill="#31af55" d="M48.41 14.786a2.817 2.817 0 1 1 0 5.636 2.82 2.82 0 0 1-2.82-2.818 2.82 2.82 0 0 1 2.82-2.818z"/></g><g><path fill="#cea44c" d="M49.282 15.488l2.115-.874-.877 2.123 2.123.867-2.123.879.876 2.118-2.117-.876-.874 2.118-.873-2.118-2.122.876.874-2.118-2.116-.88 2.116-.866-.874-2.123 2.114.874.881-2.121z"/></g><g><path fill="#fff" d="M49.139 15.845l1.754-.723-.73 1.76 1.766.722-1.766.73.73 1.758-1.762-.727-.721 1.758-.73-1.758-1.76.727.728-1.759-1.756-.729 1.756-.722-.727-1.76 1.755.723.734-1.76z"/></g><g><path fill="#fff" d="M49.108 15.914l1.684-.69-.701 1.688 1.694.692-1.694.697.7 1.689-1.687-.697-.694 1.686-.7-1.686-1.69.697.702-1.689-1.693-.697 1.693-.692-.702-1.688 1.685.69.705-1.687z"/></g><g><path fill="#e01f26" d="M49.492 18.124c.169-.824-.448-1.357-.757-1.871.052.6.482 1.083.445 1.7.015.359-.016.702-.187.96-.021.036-.021.069-.021.069.275-.256.449-.53.52-.858zm-1.22 1.047c.119.02.189-.085.307-.085.018.065.12.065.208.05.12-.101.185-.222.24-.395.153-.41.102-.857-.034-1.32-.138-.567-.532-.997-.518-1.617-.498.963.38 1.976.122 2.937v.086c-.018 0-.085 0-.122-.051-.084-.222.122-.586.037-.892 0-.104-.037-.174-.051-.26-.055-.203-.122-.407-.157-.632 0-.052 0-.138-.032-.225-.035-.085-.035-.277-.035-.414v-.1c-.277.34-.433.839-.398 1.355.037.153.052.276.12.466.037.222.174.378.174.58 0 .02-.034.02-.052.02-.343-.326-.293-.894-.343-1.338v-.244a1.748 1.748 0 0 0-.255 1.064c.067.175.082.348.202.499-.05-.187-.103-.343-.068-.531h.033c.055.38.154.79.449.996.068.017.105.03.173.05z"/></g><g><path fill="#cea44c" d="M50.115 21.196a.166.166 0 0 1-.165.166.166.166 0 0 1-.165-.166c0-.09.075-.164.166-.164.09 0 .164.073.164.164z"/></g><g><path fill="#cea44c" d="M52.166 19.094a.166.166 0 0 1-.165.167.166.166 0 0 1-.165-.167c0-.092.074-.163.165-.163.092 0 .165.07.165.163z"/></g><g><path fill="#cea44c" d="M52.166 16.154a.165.165 0 1 1-.165-.166c.092 0 .165.073.165.166z"/></g><g><path fill="#cea44c" d="M50.068 14.013a.164.164 0 0 1-.164.165.165.165 0 0 1-.167-.165c0-.09.074-.166.167-.166.09 0 .164.075.164.166z"/></g><g><path fill="#cea44c" d="M47.04 14.013a.165.165 0 0 1-.166.165.165.165 0 0 1-.165-.165c0-.09.074-.166.165-.166.091 0 .165.075.165.166z"/></g><g><path fill="#cea44c" d="M44.979 16.154c0 .09-.076.164-.164.164a.166.166 0 0 1-.167-.164.166.166 0 1 1 .33 0z"/></g><g><path fill="#cea44c" d="M44.979 19.094a.167.167 0 0 1-.164.167.167.167 0 0 1-.167-.167c0-.092.075-.163.167-.163.088 0 .164.07.164.163z"/></g><g><path fill="#cea44c" d="M47.04 21.196a.166.166 0 0 1-.166.166.166.166 0 0 1-.165-.166c0-.09.074-.164.165-.164.091 0 .165.073.165.164z"/></g><g><path fill="#82722a" d="M7.104 43.855H5.08l-.412.904c-.137.316.14.477.326.545v.086H3.556v-.086c.165-.057.401-.168.631-.656l1.63-3.548c-.023-.136-.299-.229-.36-.236v-.086H6.49l1.793 3.91c.113.283.34.506.625.613v.086H7.161v-.086c.158-.06.462-.229.36-.542-.05-.086-.09-.176-.134-.272zm-1.833-.416h1.65l-.81-1.847zm4.208-2.066h.046c.036.09.14.09.212.09h2.823v.358l-2.51 3.23h1.968c.24 0 .456-.202.592-.546h.05l-.158.885H9.22v-.333l2.511-3.229h-1.89c-.165 0-.323.248-.392.485H9.4zm8.09.65c0-.317-.102-.41-.303-.485v-.075h2.11c.846 0 1.262.47 1.262 1.076 0 .606-.43 1.076-1.274 1.076l1.102 1.31c.135.175.31.316.51.412v.075h-.919l-1.7-2.045v-.089h.925a.664.664 0 0 0 .646-.718.65.65 0 0 0-.646-.717h-.91c-.116 0-.19 0-.19.187v2.851c0 .301.096.4.297.47v.075H17.27v-.075c.197-.07.301-.169.301-.47zm4.027 3.367v-.075c.193-.072.298-.168.298-.47v-2.823c0-.316-.105-.409-.298-.484v-.075h2.238c.535 0 1.217.165 1.217.975.004.305-.128.595-.359.793.398.177.65.576.638 1.011 0 .851-.774 1.148-1.363 1.148zm.915-3.587v1.306h1.26a.58.58 0 0 0 .637-.66c0-.567-.358-.642-.664-.642zm0 3.125c0 .054.043.1.08.1h1.34a.718.718 0 0 0 .69-.745l-.005-.047c0-.395-.204-.783-.613-.783h-1.492zm6.324-.316l-.244-.538h-1.718l-.359.771c-.114.27.122.41.28.467v.075h-1.223v-.075c.143-.047.358-.144.541-.56l1.388-3.02c-.017-.115-.25-.194-.315-.202v-.075h.886l1.514 3.333a.911.911 0 0 0 .517.531v.075h-1.47v-.075c.131-.05.39-.198.285-.459-.013-.083-.046-.155-.082-.237zm-1.794-.893h1.403l-.692-1.575zm4.965-.11v1.322a.38.38 0 0 0 .302.36v.074h-1.235v-.075a.359.359 0 0 0 .305-.359V43.76l-1.33-1.859a.803.803 0 0 0-.445-.38v-.075h1.288v.075c-.115.04-.277.111-.137.308l1.005 1.435 1.098-1.413c.143-.187 0-.28-.152-.312v-.075h1.076v.075a.477.477 0 0 0-.322.204zM36 45.128a1.374 1.374 0 0 0 1.341-.893h.054l-.075.803a2.72 2.72 0 0 1-1.435.438c-1.456 0-2.189-1.005-2.189-2.059 0-1.055.718-2.059 2.19-2.059.456.003.906.105 1.32.301a.448.448 0 0 0 .057-.029h.046l-.07.872h-.052a1.184 1.184 0 0 0-1.205-.793 1.583 1.583 0 0 0-1.578 1.7c.003 1.17.806 1.726 1.588 1.726zm4.918-.517l-.244-.538h-1.722l-.359.771c-.114.27.12.41.28.467v.075h-1.237v-.075c.143-.047.358-.144.541-.56l1.39-3.02c-.023-.115-.252-.194-.317-.202v-.075h.897l1.513 3.333a.919.919 0 0 0 .532.524v.075h-1.47v-.075c.135-.05.393-.198.29-.46-.033-.075-.069-.147-.102-.229zm-1.794-.893h1.381l-.692-1.575zm7.282 1.665h-.44l-2.724-3.157v2.654a.399.399 0 0 0 .298.427v.076h-1.008v-.076a.394.394 0 0 0 .301-.427v-2.94a.415.415 0 0 0-.3-.414v-.075h.917l2.543 2.923v-2.417a.404.404 0 0 0-.3-.43v-.076h1.001v.075a.402.402 0 0 0-.295.431zm2.927-3.947c0-.358-.118-.484-.358-.57v-.086h2.475c.997 0 1.482.552 1.482 1.252s-.506 1.252-1.496 1.252l1.291 1.54c.16.205.364.371.6.483v.086h-1.077l-1.998-2.4v-.104h1.076a.778.778 0 0 0 .768-.789c0-.02-.002-.043-.004-.065a.765.765 0 0 0-.764-.842h-1.076c-.13 0-.219 0-.219.215v3.35c0 .36.115.47.36.55v.085h-1.436v-.086c.23-.079.36-.197.36-.549zm5.59.36v1.416h1.22c.146 0 .207-.168.25-.405h.051l-.076 1.133h-.047c-.02-.172-.06-.38-.179-.38h-1.22v1.378c0 .075.036.118.083.118h1.531c.291 0 .467-.316.532-.546h.057l-.176.887h-2.962v-.076c.193-.07.293-.168.293-.47V42.03c0-.316-.1-.41-.293-.485v-.075h2.89a.127.127 0 0 0 .108-.047h.022l-.087.886h-.046c0-.158-.05-.49-.222-.49zm2.775 2.428h.026c.183.717.92.904 1.435.904.516 0 1.122-.23 1.122-.76 0-.456-.48-.596-1.01-.718-.718-.187-1.493-.38-1.493-1.177 0-.796.807-1.105 1.596-1.105.367-.015.733.075 1.051.26.03 0 .058 0 .14-.048h.05v.865h-.02c-.073-.639-.852-.718-1.206-.718-.51 0-.969.201-.969.638 0 .323.642.481.937.56.716.183 1.563.452 1.563 1.377 0 .926-.926 1.231-1.815 1.21a2.25 2.25 0 0 1-1.399-.46zm4.18-2.217c0-.316-.1-.409-.298-.484v-.076h2.106c.85 0 1.262.47 1.262 1.076 0 .607-.422 1.076-1.262 1.076H62.49v1.252c0 .302.101.4.302.47v.076H61.58v-.076c.198-.07.298-.168.298-.47zm.804-.223c-.108 0-.19 0-.19.19v1.27h1.097a.729.729 0 1 0 0-1.456zm6.316 1.686c0 1.346-.81 2.006-1.635 2.006s-1.679-.689-1.679-2.034v-1.435c0-.312-.104-.406-.3-.484v-.076h1.24v.076a.41.41 0 0 0-.29.437v1.417c0 1.152.563 1.73 1.148 1.73.584 0 1.104-.542 1.104-1.626v-1.47c0-.313-.1-.406-.294-.485v-.075h1.004v.075c-.2.075-.3.17-.3.484zm.898 1.905v-.075c.193-.072.298-.169.298-.47v-2.823c0-.316-.105-.409-.298-.484v-.076h2.238c.531 0 1.216.165 1.216.976.006.305-.126.596-.359.793.401.174.657.574.646 1.011 0 .85-.774 1.148-1.359 1.148zm.918-3.587v1.306h1.26a.586.586 0 0 0 .637-.66c0-.567-.358-.642-.663-.642zm0 3.124c0 .054.047.101.08.101h1.337a.717.717 0 0 0 .688-.745l-.003-.048c0-.395-.205-.782-.617-.782h-1.485zm6.364.456h-2.87v-.075a.392.392 0 0 0 .294-.427v-2.87c0-.316-.093-.405-.294-.484v-.076h1.21v.076c-.192.075-.295.18-.295.484v2.845c0 .143.05.18.133.18h1.36c.24 0 .458-.213.587-.546h.051zm1.865-3.946v.075c-.194.076-.298.18-.298.485v2.87a.36.36 0 0 0 .298.405v.075h-1.23v-.075a.36.36 0 0 0 .294-.406v-2.869c0-.316-.097-.406-.294-.485v-.075zm-.678-1.008a.359.359 0 1 1-.297.359.312.312 0 0 1 .29-.32zm2.651 1.008v.075a.435.435 0 0 0-.305.485v1.578l1.561-1.733a.053.053 0 0 0 0-.025c.13-.143.05-.287-.137-.308v-.075h1.06v.075a1.869 1.869 0 0 0-.58.463l-1.076 1.176 1.367 1.715c.123.186.298.332.502.42a1.108 1.108 0 0 1-.032.011v.067h-.9l-1.374-1.732-.405.462v.768a.383.383 0 0 0 .304.427v.075h-1.216v-.075a.39.39 0 0 0 .302-.427v-2.87c0-.315-.1-.405-.302-.484v-.075zm2.392 3.846c.14-.052.341-.163.506-.549l1.392-3.02c-.022-.115-.254-.194-.319-.202v-.075h.89l1.51 3.333a.936.936 0 0 0 .534.524v.075h-1.47v-.075c.132-.05.391-.198.29-.46a1.404 1.404 0 0 1-.1-.197l.007-.043-.24-.538H84.68l-.359.771c-.115.27.12.41.28.467v.075h-1.227v-.008h.04v-.075a1.395 1.395 0 0 1-.008-.003zm1.447-1.582h1.406l-.692-1.575zm3.303.512h.057c.184.718.92.905 1.436.905.516 0 1.123-.23 1.123-.76 0-.457-.478-.596-1.009-.718-.717-.187-1.492-.38-1.492-1.177 0-.796.807-1.105 1.596-1.105.37-.015.735.075 1.055.258.025 0 .054 0 .14-.046h.021v.864h-.05c-.072-.638-.854-.717-1.206-.717-.505 0-.967.201-.967.64 0 .321.641.48.935.558.718.183 1.565.452 1.565 1.378 0 .925-.929 1.23-1.816 1.21a2.26 2.26 0 0 1-1.398-.46zm5.094-2.776v.075c-.186.076-.294.18-.294.485v2.87a.359.359 0 0 0 .294.405v.075h-1.213v-.075a.359.359 0 0 0 .298-.406v-2.869c0-.316-.097-.406-.298-.485v-.075zM14.72 41.37c1.457 0 2.192 1.02 2.188 2.016a2.009 2.009 0 0 1-2.152 2.045 2.52 2.52 0 0 1-.585-.079 1.768 1.768 0 0 1-1.158-1.56v-.126a1.735 1.735 0 0 1 0-.204h3.21v-.083a1.581 1.581 0 0 0-1.578-1.7 1.175 1.175 0 0 0-1.248.803h-.054l-.022-.882h.054c.025.008.048.02.07.036.401-.195.842-.3 1.29-.309zm.058 3.752a1.387 1.387 0 0 0 1.413-1.334h-2.622c-.034.52.26 1.007.735 1.22.158.047.323.072.488.071zm7.841 7.527v.086h-1.434v-.086a.454.454 0 0 0 .358-.503v-3.55h-1.104c-.406 0-.56.297-.66.587h-.08l.093-1.029h4.187l.096 1.03h-.07c-.1-.29-.252-.589-.66-.589h-1.092v3.587a.458.458 0 0 0 .352.51zm10.134-3.843v.076c-.197.08-.298.172-.298.488v2.87a.398.398 0 0 0 .298.426v.072h-1.216v-.072a.396.396 0 0 0 .301-.426v-1.32h-2.342v1.32a.383.383 0 0 0 .301.426v.072H28.58v-.072a.394.394 0 0 0 .302-.426v-2.87c0-.319-.1-.405-.302-.488v-.076h1.216v.076c-.189.075-.3.18-.3.488v1.198h2.327V49.37c0-.312-.104-.405-.3-.488v-.076zm.646 2.777h.053c.184.718.923.904 1.436.904.513 0 1.12-.226 1.12-.76 0-.452-.478-.596-1.009-.718-.718-.183-1.492-.38-1.492-1.176 0-.797.807-1.105 1.593-1.105.37-.016.736.074 1.057.258.03 0 .058 0 .137-.047h.058v.865h-.079c-.069-.639-.85-.718-1.202-.718-.509 0-.969.201-.969.64 0 .322.642.48.936.558.718.187 1.565.456 1.565 1.378 0 .922-.926 1.238-1.816 1.238a2.267 2.267 0 0 1-1.399-.459zm5.097-2.777v.076c-.19.075-.298.18-.298.488v2.87a.36.36 0 0 0 .298.405v.072h-1.219v-.072a.358.358 0 0 0 .294-.405v-2.87c0-.319-.093-.405-.294-.488v-.076zm-.674-1.007c.18.01.317.165.306.345v.013a.305.305 0 1 1-.603 0 .311.311 0 0 1 .283-.315zm4.305 4.936h-2.87v-.072a.392.392 0 0 0 .298-.427v-2.87c0-.319-.097-.405-.298-.488v-.075h1.212v.075c-.193.076-.3.18-.3.488v2.845c0 .14.05.18.132.18h1.363c.241 0 .46-.213.588-.546h.047zm6.794 0h-.523L45.2 49.028v3.153a.465.465 0 0 0 .36.502v.086h-1.182v-.086a.465.465 0 0 0 .36-.502v-3.454a.491.491 0 0 0-.36-.485v-.086h1.076l2.986 3.437v-2.84a.471.471 0 0 0-.36-.51v-.087h1.173v.08a.474.474 0 0 0-.358.51zm3.928-.772l-.24-.538h-1.726l-.358.772c-.119.27.118.405.28.462v.072h-1.228v-.072c.144-.046.36-.143.542-.559l1.388-3.02c-.02-.115-.25-.198-.31-.202v-.075h.884l1.514 3.33a.926.926 0 0 0 .531.523v.071h-1.47v-.07c.132-.055.394-.199.287-.46-.03-.015-.069-.108-.1-.19zm-1.794-.893h1.403l-.692-1.575zm3.678-2.353h.046c.036.09.14.09.208.09h2.823v.358l-2.51 3.23h1.972c.24 0 .456-.202.595-.547h.047l-.154.887h-3.3V52.4l2.511-3.228h-1.898c-.162 0-.323.247-.387.484h-.05zm5.021.09v.075c-.193.075-.298.18-.298.488v2.87a.36.36 0 0 0 .298.405v.072h-1.24v-.072a.36.36 0 0 0 .294-.405v-2.87c0-.319-.098-.405-.295-.488v-.076zm-.674-1.008a.358.358 0 1 1-.301.358.311.311 0 0 1 .272-.315zm1.73 1.571c0-.319-.105-.413-.299-.488v-.076h2.106c.85 0 1.263.471 1.263 1.077s-.427 1.076-1.27 1.076l1.097 1.31c.135.174.308.315.506.412v.072h-.918l-1.729-2.006v-.09h.93a.666.666 0 0 0 .65-.683v-.034a.653.653 0 0 0-.65-.717h-.912c-.107 0-.186 0-.186.186v2.852c0 .301.096.402.298.47v.072h-1.213v-.072c.193-.068.297-.169.297-.47zm6.904 3.368h-2.869v-.072a.388.388 0 0 0 .294-.426v-2.87c0-.319-.097-.405-.294-.488v-.076h1.212v.076c-.19.075-.3.18-.3.488v2.845c0 .14.05.18.132.18h1.36c.243 0 .458-.213.587-.547h.054zm1.794-3.928v.076c-.19.075-.298.18-.298.487v2.87a.36.36 0 0 0 .298.406v.071h-1.213v-.07a.36.36 0 0 0 .295-.407v-2.87c0-.319-.097-.405-.295-.487v-.076zm-.675-1.008c.181.01.32.163.311.342 0 .006 0 .012-.002.017a.308.308 0 1 1-.606 0 .311.311 0 0 1 .254-.319zm3.405 3.164v1.324a.38.38 0 0 0 .301.36v.07H71.32v-.07a.378.378 0 0 0 .304-.36v-1.173l-1.38-1.805a.821.821 0 0 0-.445-.38v-.075h1.287v.075c-.114.036-.279.111-.139.305l1.007 1.435 1.095-1.413c.144-.187 0-.28-.15-.312v-.076h1.075v.076a.455.455 0 0 0-.319.204zm3.318-2.152v.075c-.19.076-.298.18-.298.488v2.87a.36.36 0 0 0 .298.405v.072h-1.259v-.072a.36.36 0 0 0 .298-.405v-2.87c0-.319-.097-.406-.298-.488v-.075zm-.678-1.008c.18.011.318.165.306.346v.012a.305.305 0 1 1-.603 0 .311.311 0 0 1 .254-.322zm-48.926.911c1.453 0 2.188 1.02 2.188 2.038a2.012 2.012 0 0 1-2.152 2.044 2.541 2.541 0 0 1-.582-.079 1.793 1.793 0 0 1-1.162-1.56v-.126a1.158 1.158 0 0 1 0-.204h3.19v-.083c.002-.037.004-.074.004-.11a1.576 1.576 0 0 0-1.575-1.576 1.172 1.172 0 0 0-1.246.804h-.057l-.022-.879h.054c.025.008.048.02.068.036a3.094 3.094 0 0 1 1.292-.305zm.057 3.752a1.388 1.388 0 0 0 1.396-1.295h-2.619a1.24 1.24 0 0 0 .74 1.22c.156.05.32.075.483.075z"/></g><g><path fill="#b5a976" d="M18.734 57.904h59.322v.085H18.734z"/></g><g><path fill="#82722a" d="M45.62 20.933h.028"/></g><g><path fill="#fff" d="M47.679 22.308a.15.15 0 0 1-.086-.072h.032a.362.362 0 0 1 .179 0v.057h-.125zm.236.023a.271.271 0 0 1 0-.057.194.194 0 0 0 .083 0 .293.293 0 0 1 .183.057.452.452 0 0 1-.266.043zm.922.012c0-.025-.04-.025-.028-.025.01 0 .039-.018.039-.043a.423.423 0 0 1 .28-.057v.057c-.057.072-.197.072-.294.072zm.36-.19c.013 0 .043 0 .067-.057.047 0 .11-.03.154.025v.057l-.154.028z"/></g><g><path fill="#fff" d="M48.572 21.956l.021-.021s-.032.02-.02.02z"/></g><g><path fill="#fff" d="M50.29 21.21l.262-.073c0-.02 0-.032-.022-.032a1.74 1.74 0 0 1-.326.071z"/></g><g><path fill="#fff" d="M45.649 20.997h.028"/></g><g><path fill="#fff" d="M50.577 20.973a.425.425 0 0 0 .28-.104l-.04-.032c-.08.052-.164.097-.25.136z"/></g><g><path fill="#12100e" d="M47.737 23.297c-.02-.053-.065-.053-.065-.09l.065-.082c.067-.064.186 0 .268-.064h.037v-.022a.034.034 0 0 0 .049 0h.047c.022-.028.022-.028 0-.028h.036l.082-.04h.033v-.068h.02v-.036c0 .036.016 0 .052 0h.032v-.032c.018 0 .069.018.069 0s0 0-.051-.018l.1.018v-.018h.047v-.05h-.096c-.416.068-.603.39-1.02.426-.018-.017-.086-.05-.086-.05-.014-.09.086-.08.05-.118-.035-.04-.085-.072-.085-.14h-.062a.107.107 0 0 1-.086.036c-.032.032-.136-.036-.17-.036-.031 0-.031.036-.031.036-.064.136-.215 0-.333.068v.068a.153.153 0 0 1-.051.172.256.256 0 0 1-.3.036c-.073-.018-.105-.072-.137-.186a.519.519 0 0 1 .064-.262v-.068a.18.18 0 0 0-.218-.018.999.999 0 0 1-.28.258c-.036 0-.036-.032-.087-.032a.806.806 0 0 1 0-.36c-.05-.035-.013-.017-.078-.035-.065-.018-.047-.14-.115-.19-.154.05-.22.05-.32-.05a.162.162 0 0 1-.1-.173.398.398 0 0 1 .152-.168.51.51 0 0 0 .114-.032v-.036a.417.417 0 0 1-.133-.223h-.082v-.003a.738.738 0 0 1-.36-.136l-.032-.101.137-.1a.38.38 0 0 1-.137-.036.444.444 0 0 1-.064-.208c0-.072.133-.072.133-.137-.108-.104-.277 0-.36-.104-.05-.014-.071-.096-.05-.2.022-.104.137-.104.169-.202-.032 0-.032 0-.032-.021a.492.492 0 0 1-.104-.391.284.284 0 0 1-.197-.054.472.472 0 0 1-.187-.41l-.15-.05v-.053a.698.698 0 0 1-.183-.136.334.334 0 0 1 0-.172l.183-.054c0-.068-.037-.072 0-.154.036-.083.068-.083.118-.133v-.054l-.065-.086c-.082-.09-.05-.258 0-.377.015-.032.169-.071.2-.05.034.022.034.1.084.137h.018c.774 2.119 4.438 5.714 8.25.818.065-.151.176-.302.197-.46.022-.158.105-.272.122-.394 0 .186-.122.426-.122.68 0 .019 0 0 .019 0l.219-.781v.018l-.07.409h.034a1.66 1.66 0 0 0 .165-.685h.05c-.01.172-.147.43-.08.63l.08-.286h.035l-.15.535.15-.36-.167.514c0 .032-.03.05 0 .05a1.53 1.53 0 0 0 .175-.372l-.218.716.182-.286h.108c-.018.118-.076.172-.148.308a5.44 5.44 0 0 0-.19.39c.116-.108.207-.242.266-.39h.035c0 .119-.082.15-.111.255-.132.223-.29.43-.47.617.284-.068.37-.36.538-.563v.036a5.937 5.937 0 0 1-.652.907c.104-.086.236-.24.319-.326l.018.05c-.18.279-.426.508-.718.667a2.13 2.13 0 0 0 .585-.358h.018c-.132.153-.305.272-.455.43-.121.124-.27.218-.435.272a.407.407 0 0 0 .302-.114c.13-.057.25-.132.358-.223h.022c-.154.173-.283.208-.42.359a3.48 3.48 0 0 1-.652.294c.263-.005.519-.09.735-.24v.05c-.17.1-.388.233-.603.359a3.793 3.793 0 0 1-.65.222c.328.028.654-.064.919-.258a.14.14 0 0 1 0 .05 4.174 4.174 0 0 1-1.435.459c.244-.003.486-.043.718-.118l.05.068v.018l-.133.29c-.15.069-.265.169-.42.223-.031 0-.031 0-.031-.036l.082-.122h-.101l-.086.305a.797.797 0 0 1-.416.158.613.613 0 0 1-.437-.04c.154-.03.303-.088.437-.172-.083-.032-.205-.064-.301-.1a2.46 2.46 0 0 0-.671-.205c.165.086.402.137.617.24v.069c0 .039-.054.068-.086.068-.266.09-.47-.22-.75-.22.159.092.328.165.503.22v.02a.147.147 0 0 1-.068.138.607.607 0 0 1-.585-.054.505.505 0 0 0-.27-.133c-.215.05-.348.287-.602.287zm5.37-4.613a1.607 1.607 0 0 1-.011.037zm-8.692 1.154v-.02c0 .02.018.02.018 0l-.068-.05v.063l.035.022z"/></g><g><path fill="#cfa44c" d="M43.833 19.398a1.143 1.143 0 0 1-.13-.122.31.31 0 0 1-.035-.12.2.2 0 0 1 .069 0 .248.248 0 0 1 .204.07l-.104.19zm1.18 2.206a.254.254 0 0 1-.204-.1v-.036a.406.406 0 0 1 .25-.12c.069.084 0 .156 0 .256zm.718 1.317a.2.2 0 0 0-.035-.054.581.581 0 0 1 .035-.255c.088.013.174.037.255.072a1.21 1.21 0 0 1-.255.24zm1.417-.07h-.082c-.015-.063-.101-.15-.101-.236v-.017c.123.02.206.122.298.123v.016c0 .033.022.033 0 .05h-.047c.018 0 .018 0 .018.05l-.018-.05-.017.05h-.033zm.137-.131a.122.122 0 0 1-.022.001c.001-.01.005-.001.022-.001zm.132.204c-.032-.054-.032-.158.029-.154h.068v.122s0-.022-.018-.022v.054z"/></g><g><path fill="#b9a17c" d="M47.486 23.164a.183.183 0 0 1-.105-.086h.039a.439.439 0 0 1 .216 0v.068zm.283.068a.258.258 0 0 1 0-.068.205.205 0 0 0 .097-.018.341.341 0 0 1 .218.068.562.562 0 0 1-.315.051zm1.104-.003h.015zm.015 0c0-.032-.051-.032-.036-.032s.05-.022.05-.054a.497.497 0 0 1 .33-.068v.068c-.075.082-.227.086-.344.086zm.42-.237c.014 0 .05 0 .082-.068.05 0 .133-.036.187.029v.075l-.187.032z"/></g><g><path fill="#725b56" d="M48.878 23.078v-.03l-.094.027a.368.368 0 0 1 .07.003h-.08l-.08.022.043-.02-.007.002a.374.374 0 0 1 .008-.002l.07-.031c-.046 0-.114.033-.146.033l.068-.072h-.036l-.1.039.033-.04c.02-.035 0-.035 0-.035l-.047.036.032-.068h-.05a.11.11 0 0 1 .086-.054c.166.032.325.096.466.19zm0 .004a.374.374 0 0 0-.024-.004h.024zm.476-.158v-.036l-.032.036v-.036h-.114v-.032l-.051.032h-.043c0-.032 0 0 0 0v-.05h-.065v-.046c.141.034.278.076.413.129l-.083.053zm-.305-.132l-.01-.002.01-.006zm-.086.046c0-.054.037-.054.037-.054h-.086a.185.185 0 0 1 .099 0l.026.006zm-.208-.395h-.003a.656.656 0 0 1 .205-.172c.032 0 .082 0 .082.036l-.05.032v.05c-.054-.05-.105.022-.105.022l-.032.032c-.032 0-.036.036-.05.036-.014 0-.014.032-.047.032zm-.8.259h-.03l.03-.036c-.046 0-.046.018-.046 0l.047-.033-.03-.018c-.013-.032-.013.018-.035 0l.022-.032h-.022c-.032 0-.032 0-.032.032v-.086c-.051 0-.051.033-.051.033v-.033s-.036.018-.036 0 .036-.018 0-.05v-.036a.365.365 0 0 1 .216.068l.05.176h-.072zm-.03-.07v-.017c.016.033 0 .018 0 .018zm-.318.414h-.132l.344-.171v.013c0 .036 0 .036-.036.036l-.097.039v.033h-.05zm.43-.28h.065v.025h-.115zm.202-.082a.277.277 0 0 1 .082-.033.104.104 0 0 1 .068.05h-.068l-.082.036h-.063c.021-.017.037-.037.063-.053zm-.063.053a.126.126 0 0 1-.074.028v-.028zm-.189.054l-.021.01v-.01zm-.021.033s-.01-.01-.017-.014l.017-.008zm-.03 0h-.015l.017-.008-.001.008zm-.015 0l-.03.015a.077.077 0 0 1 .01-.015zm-.02.035h-.05l.04-.02c-.011.02.01.02.01.02zm-.05 0l-.032.016v-.016zm.098-.049l-.011.006c.001-.007.006-.008.01-.006z"/></g><g><path fill="#fff" d="M48.572 22.766l.024-.025s-.034.025-.023.025z"/></g><g><path fill="#12100e" d="M47.467 22.372s-.025-.025-.036-.025c-.01 0 .011.01.036.025z"/></g><g><path fill="#12100e" d="M46.197 22.22v-.027s-.02.028-.036 0z"/></g><g><path fill="#fff" d="M46.37 22.167h.02v-.025l-.036.025z"/></g><g><path fill="#12100e" d="M46.244 22.142c0-.025 0-.025.021-.025.022 0-.02 0 0 0h-.02z"/></g><g><path fill="#f3ef0d" d="M50.631 21.862l.312-.086c0-.025 0-.039-.02-.039a2.14 2.14 0 0 1-.396.085z"/></g><g><path fill="#fff" d="M48.342 21.747v-.04h-.024c-.026 0 0 .025-.026.04z"/></g><g><path fill="#fff" d="M45.06 21.607h.036"/></g><g><path fill="#fff" d="M46.245 21.618v-.05h.067v.05zm.067.05s-.032-.064 0-.032 0 0 0 .032zm.068-.104h-.05v-.053h.033v.053h.032v.036z"/></g><g><path fill="#fff" d="M46.337 21.604l-.025-.05h-.022.022a.053.053 0 0 1 0 .035s.014.015.025.015z"/></g><g><path fill="#f3ef0d" d="M50.979 21.557a.49.49 0 0 0 .334-.125l-.047-.036a2.27 2.27 0 0 1-.301.158z"/></g><g><path fill="#f3ef0d" d="M51.352 21.288l.287-.122c-.082-.025-.14.065-.22.09-.078.025-.067 0-.081.025-.014.025-.004.007.014.007z"/></g><g><path fill="#31b155" d="M44.83 20.162h-.045c-.083-.086 0-.154 0-.258-.015-.018-.051-.018-.083-.036a.17.17 0 0 1-.082-.172c0-.051.067-.051.067-.086.086.154.152.258.2.359 0 0 0-.04 0 0 0 .039.05.039.05.057 0 .053.034.053.034.053h-.115v.037h-.048v.035h.063zm-.54-.176h-.07v-.017h-.05c0-.04.032-.072 0-.072h-.05c-.09-.032-.09-.101-.136-.205-.047-.104.05-.154.1-.272.036-.191-.168-.262-.269-.4v-.063c.015-.065.09-.015.137-.101.047-.086.04-.111 0-.15-.04-.04-.122-.09-.122-.14a.426.426 0 0 1 0-.24h.122c.094 0 .094.122.165.139h.032c.082.252.183.492.27.697v.067a2.324 2.324 0 0 0-.36-.645c.055.133.122.222.19.358.06.08.099.172.116.269a.472.472 0 0 0-.216-.186c.18.12.309.303.36.513h-.062v.06h.062l-.062.037-.071-.036.07.104v.046l-.035-.032c0 .032-.067.05-.032.05h.068v-.014a.08.08 0 0 1 .062-.018c0 .018.049.05.049.05h-.107v.054l-.03.036h-.067c0 .036.033.036 0 .072l-.036-.036.032-.05h-.065v.047h-.047c.032.039.06.089.094.089h-.01zm-.056-.082v-.03h-.032a.157.157 0 0 1 .033.03zm.686 1.427a.484.484 0 0 1-.266-.136v-.086l.151-.068v-.068a.475.475 0 0 0-.05-.101 1.334 1.334 0 0 0-.218 0 .277.277 0 0 1-.183-.05v-.14c0-.028.046-.05.072-.05.025 0 .11-.054.132-.151.022-.096-.132-.14-.201-.243a.213.213 0 0 1 .072-.187c.029-.05.112-.05.166-.05.053 0 .114.168.2.237a.302.302 0 0 0 .169-.07H45a.456.456 0 0 1 .2.084.256.256 0 0 0 .065.104v.14h-.111l-.036.064h-.064l-.037.076s-.035 0-.035.028c0 .029.035.054.035.068l-.035-.032-.033-.172v-.273h-.032a2.157 2.157 0 0 0 0 .34 4.073 4.073 0 0 1-.402-.512c.1.21.237.4.402.563l-.333-.028v.028a.552.552 0 0 0 .25.069.372.372 0 0 1 .134 0l.068.053v.072s.035-.05.035 0l-.035.05v.083h.035v.05h-.035v.018h.035c0 .05 0 .05.065.068-.065 0 0 .018-.065 0v.05a.289.289 0 0 0 .083 0l-.1.119.036.02-.036.037zm.133-.6h-.028c.011-.006.028-.021.028 0zm-.028 0c-.005.004-.009.005-.009 0zm.34 1.157a.577.577 0 0 1-.184-.187s-.002-.046.048-.064c.05-.018.147-.037.147-.141.068-.168-.197-.204-.197-.358l.045-.05c.052-.018.052-.07.052-.136a.29.29 0 0 1-.065-.101c-.068 0-.1-.014-.1-.086 0-.078.017-.155.05-.226.046 0 .15-.015.232 0 .082.014.026.222.116.24.088.018.114-.035.186-.054l.05.019c.068.057.068.225.133.293.096 0 .186-.068.283 0 .031.046.05.1.05.155v.118h-.033v.122h.033c.033 0 .033.014.033.05v.069h-.103a.697.697 0 0 0-.023-.02v-.05h-.032c-.006 0-.025 0-.037.006-.025-.011-.047-.014-.064-.005h-.064v-.157l-.029.17h-.036c-.053 0-.053.023-.053.023v.033c.053 0 .053-.051.053 0h-.118a.714.714 0 0 1-.115-.646c-.07.068-.015.19-.07.305a2.01 2.01 0 0 0-.282-.391.183.183 0 0 1-.082-.07c.082.156.233.31.337.482-.104 0-.2-.068-.323-.04l.36.108c.06.07.106.15.135.237v.05h.032l.036.054h-.269l.111.05h.058v.014s-.058-.017-.058 0h-.046v.05h-.068a.144.144 0 0 0-.046.033.04.04 0 0 0-.012.015.147.147 0 0 0-.028.089zm.776-.337c.054.046.106.103.138.143l-.032.05.033.036c-.033 0-.033.047-.033.047h.033v.05h.035v.018c-.035 0 0-.018-.035-.018h-.036v.036c0 .018.05-.036.05 0-.136.032-.214-.086-.32-.158v.02l.134.134a1.34 1.34 0 0 0-.358.104c-.065-.018-.162-.104-.252-.104v.032l.237.072c-.147.083-.302 0-.401.115h.05c.113-.036.282 0 .357-.065 0 .065-.05.1-.136.169v.05c.122-.05.136-.19.24-.272a.761.761 0 0 1 .284-.036c-.054.036-.105.086-.155.118v.072a.851.851 0 0 0 .165-.17.126.126 0 0 1 .137 0h.068l-.068.019.05.05.036.029a.058.058 0 0 1-.05.054v.036h-.05s-.033.036-.05.036h-.05c0 .035 0 0 .035.035h-.086V22.2l-.05.053v.155s-.033 0-.033.032h-.004c-.03-.045-.06-.104-.132-.115-.097-.014-.132.154-.197.187a.317.317 0 0 1-.137 0l-.032-.068a.289.289 0 0 0-.032-.12c-.05-.053-.136 0-.218 0-.084 0-.134 0-.152-.067-.018-.068 0-.118 0-.186 0-.07.097-.051.147-.051a.356.356 0 0 0 .155-.018.416.416 0 0 0 0-.122c0-.03 0-.06.01-.078a.144.144 0 0 1 .012-.015.045.045 0 0 1 .027-.007c.051 0 .202.068.285 0a.19.19 0 0 0 .085-.154c0-.071.067-.09.13-.138l.014.016.006-.004-.018-.013.002-.001a.042.042 0 0 1 .006-.004h.037l-.027.018.04.028v-.024c0-.009.006-.014.014-.017.022.01.045.026.07.045v.019zm-.172-.07l.007.006-.001.001zm.15.105c0-.05 0-.05-.033-.05h-.04zm-.073-.05l-.01-.008v.008zm-.085 1.126c.012-.072.003-.136.032-.197V22.508h.019v-.064h-.007c0-.002.002-.003.003-.004h.016a.16.16 0 0 0 .034.039c-.046 0-.046 0-.046.033v.15zm.032-.197c0-.018.002-.02.012-.021a.189.189 0 0 0-.012.021zm.349.764c-.065-.014-.086-.068-.086-.136a.211.211 0 0 1 .07-.208c0-.05.05-.108 0-.172-.05-.065-.136-.032-.214-.065-.019-.021-.04-.054-.019-.126a.186.186 0 0 1 .183-.096.517.517 0 0 1 .215-.09c.069-.018.087-.068.138-.068V22.2l-.116-.101c0-.05-.021-.05 0-.086l.166-.036v.018h.048v.054l-.048.05c0 .029.016-.007.016.029 0 .036-.034 0-.034.036v.036s.032.068 0 .068h.032l.035.068v.054a.357.357 0 0 1-.135.119l.016.03a.853.853 0 0 0-.146.5c.038-.19.11-.37.215-.531a.587.587 0 0 0 .119.29.737.737 0 0 1-.05-.171c-.036-.087-.068-.205 0-.237h.05c0 .032.032.032.032.032s.05.036.082 0l.048.034v.002c-.02.032-.07.039-.07.104s.07.115.07.15c0 .036.05.105 0 .155-.102.122-.235-.054-.32 0-.087.054-.037.19-.087.294a.242.242 0 0 1-.182.05zm.643-.78l.077-.027h.116l-.037.036h.037l.032-.036.05.036.035.05v.054c-.019 0-.015.032-.05.032-.036 0-.09-.032-.137-.104-.023 0-.086-.036-.123-.04zm-.023.009l-.003-.002c.005-.007.014-.008.026-.007zm-.377.056c-.054.032-.108.064-.14.116.049-.018.08-.065.14-.116zm.304-.106c-.029 0-.043-.018-.043-.072a.433.433 0 0 1-.135-.083v-.068a.546.546 0 0 0 .217-.168.166.166 0 0 0-.067-.122c-.082-.05-.232 0-.337.018-.048 0-.083-.018-.112-.018-.027 0 0-.032-.05-.05-.05-.018-.05-.047-.05-.083 0-.036.133 0 .169-.05a.102.102 0 0 0 .081-.104c-.016-.104-.163-.136-.263-.173a.256.256 0 0 1-.088-.168v-.054c.022-.05.072-.068.122-.086.115.086.248.1.316.24a.388.388 0 0 0 .136 0l.23.1c.021 0 .021.037 0 .069 0 .04.018.079.05.104a.24.24 0 0 0 .19-.036c.08-.018.143 0 .165.05a.244.244 0 0 1 .032.223c-.054.14-.104.244-.132.359a2.274 2.274 0 0 1-.115-.428c0-.05 0-.05-.018-.05v.255c-.032-.118-.169-.19-.269-.27l-.069-.257c0-.036 0-.036 0 0l.043.237a1.02 1.02 0 0 1-.429-.41v.022c.101.165.238.305.401.409-.05 0-.169 0-.219.05.097 0 .22-.05.334 0a.638.638 0 0 1 .251.327h-.233c.114 0 .215 0 .283.054l.065.168-.438.072zm1.647.358s-.019 0 .014-.09c-.103 0-.118-.125-.186-.15-.067-.025-.097.065-.164.1h-.088c-.05-.071-.05-.24-.133-.272v-.018c-.035-.068-.118 0-.168.05a.353.353 0 0 1-.25.068l-.069-.032h.033v-.036l-.055.036c0-.036.022-.036 0-.036v-.032c0-.022-.02-.072 0-.09.022-.018 0-.054 0-.054h.007v-.068h.116a.166.166 0 0 1 .168.086c0-.068-.065-.086-.097-.14.14-.04.291-.02.416.054.086.018.086.155.086.273.051-.118 0-.187 0-.255.133.086.201.29.334.323-.118-.097-.187-.251-.283-.337.068 0 .132.014.182 0 .051-.014.101-.036.101-.086-.1.05-.187 0-.283 0a.539.539 0 0 1-.219 0c-.1-.05-.197 0-.266-.05l.165-.104.07-.086c-.166.07-.249.193-.468.258v-.05l-.032-.018c.01.003.021.003.032 0v-.086h.051v-.036s.067 0 0-.033h-.05c.11-.093.23-.173.358-.24a.187.187 0 0 1 .19.05c.05.036.032.122.05.223.05.02.082.068.082.068h.116c.067 0 .111-.036.165 0 .053.036.122.036.15.072.018.136-.097.154-.097.236a.459.459 0 0 0 .136.172c.017.02.027.043.03.069.068.075 0 .157-.03.19l-.118.05zm-1.055-.556h.061s.032 0 0 0-.032-.035-.032-.035v.004c0 .016-.013.03-.03.03z"/></g><g><path fill="#f0ee0b" d="M52.214 19.825c0-.022-.07 0-.07-.022a.467.467 0 0 1-.031-.219c.08-.143.148-.293.2-.448a1.113 1.113 0 0 0 0 .326c.037.118.069.187 0 .273v-.018l-.067.086c0 .022 0 .022-.032.022zm.254-.359c-.036 0-.036-.022-.036-.05-.05-.155.05-.327.1-.463-.05.154.087.358-.05.495v.021zm.23-.169l-.047-.036a.253.253 0 0 1-.032-.19c.064-.16.14-.314.229-.463.019.13.019.261 0 .391a.378.378 0 0 1-.15.294zm-.08.355a.257.257 0 0 0-.085-.068c.019-.052.042-.104.068-.154.097-.104.215-.169.316-.29-.03.121-.07.186-.101.29a.453.453 0 0 1-.197.222zm-.15.327a.096.096 0 0 1-.086-.05.163.163 0 0 1 .022-.104c.082-.137.298-.087.416-.208a1.226 1.226 0 0 1-.197.272.214.214 0 0 1-.152.09zm-1.202 1.065v-.072l.05-.046a.305.305 0 0 1 .2-.068h.052l-.086-.05v-.033a.302.302 0 0 1 .005-.01c.018-.016.035-.036.052-.05l.002-.02c.125-.114.33-.08.443-.214.05-.068.197-.108.197-.208 0-.1.05-.115.086-.173a.926.926 0 0 0 .435-.204.878.878 0 0 1-.274.441c-.118.07-.186.07-.236 0l-.064.07c-.146.082-.244.318-.402.447.07-.01.137-.016.196.014a.924.924 0 0 1-.53.187zm.459-.473h-.067v-.069c0-.068 0-.086.082-.154.177-.079.33-.202.447-.356-.105.162-.201.34-.29.496a.158.158 0 0 1-.146.097zm.462-.58zm-.781.791v-.21c.13-.184.275-.354.434-.51l.148-.119c0-.04 0-.04-.051-.04l-.064.09a.299.299 0 0 1 .064-.176c.05-.086.086-.186.137-.219a1.845 1.845 0 0 0-.02.305.405.405 0 0 1-.181.244l-.033-.05c-.16.163-.265.372-.299.598a.263.263 0 0 0-.054.07c-.02.017-.042.029-.066.021zm-.211.201h.011zm-.04-.05v-.19a.97.97 0 0 1 .237-.269c-.083.097-.068.287-.083.41-.032.048-.063.098-.112.1-.03-.001-.042-.005-.042-.05zm-.301.237v-.065a.547.547 0 0 1 .266-.39c-.066.153-.066.322-.115.426l-.12.03zm-.237.226v-.036c-.032 0-.032-.05-.032-.137.083-.104.2-.24.28-.358a.26.26 0 0 1-.051.154.674.674 0 0 1-.046.308.34.34 0 0 1-.137.051zm-.316.22h-.05a.154.154 0 0 0-.032-.105c.09-.185.229-.343.398-.46-.112.101-.112.341-.197.513-.018.068-.101.068-.12.068zm-.358.19s-.032-.02-.047-.037a.27.27 0 0 1 .032-.258c.116-.114.244-.21.384-.29-.082.117-.118.357-.215.476a.14.14 0 0 1-.154.104zm-.448.221h-.051l-.003-.003a.122.122 0 0 1 .003-.173 1.5 1.5 0 0 1 .484-.444c-.136.157-.154.434-.236.534-.083.1-.115.1-.197.1zm-.36.255c-.035 0-.071 0-.086-.05a.228.228 0 0 1 0-.105c.107-.268.309-.488.567-.616a1.23 1.23 0 0 0-.286.53c-.051.086-.066.222-.18.241zm-.38.125a.243.243 0 0 1-.147-.086.1.1 0 0 1 0-.1c.149-.292.407-.514.718-.617-.181.19-.328.41-.435.65a.25.25 0 0 1-.136.153zm2.996-1.302h-.018a.228.228 0 0 1 .133-.082c.035-.054.1-.054.114-.105l-.251.12c.047-.055.183-.105.25-.17v-.05c.037-.018.052-.032.052-.072 0-.039-.032 0-.032-.032.031-.084.145-.138.164-.234.116-.043.254-.028.384-.064.02 0 .032-.009.04-.02-.055.095-.102.164-.172.19a.422.422 0 0 1-.287.171l.168-.172-.215.158s-.036.054-.05.071c-.015.018-.036 0 0 .051.112-.022.224-.05.333-.086a4.302 4.302 0 0 1-.434.337zm.412-.625a.37.37 0 0 0-.016.007l.017-.013a.15.15 0 0 1-.001.006zm-.132.091a.307.307 0 0 1 .116-.084zm.584-.223l-.017.03c.007-.016.01-.03.017-.03zm-.017.03a5.017 5.017 0 0 0 0 0zm-1.062 1.075H51.5l.086-.086h-.05c-.022 0-.036.086-.072.086s-.065 0-.065-.036c.065-.086.233-.1.334-.204a.895.895 0 0 0 .416-.09.514.514 0 0 1-.315.24 1.044 1.044 0 0 1-.302.101zm-.377.337l.197-.104v-.032c-.08.032-.183.118-.283.118-.02.018-.068 0-.068-.05l.4-.205c.1 0 .184.055.267 0 .068.055.085 0 .115 0-.097.104-.234.12-.334.205a1.786 1.786 0 0 0-.28.068zm-.434.32c.093-.033.188-.06.283-.083 0-.02.033-.02.033-.054h-.033c-.136.054-.233.072-.402.122-.031 0-.109 0-.114-.045a.905.905 0 0 0 .175-.074c.248-.086.509-.127.772-.12h.05c-.215.14-.461.23-.718.257zm-.233-.06a.916.916 0 0 1-.047.013 3.054 3.054 0 0 1-.358 0h-.126s0-.018-.037-.018c-.017-.083 0-.155.069-.155a.312.312 0 0 1 .219-.067c.157.06.319.104.484.136a.919.919 0 0 1-.029.017c-.06.02-.118.043-.175.07v.004zm.06.285h-.082c.082-.05.165 0 .25-.068l-.035-.032a.997.997 0 0 1-.487.05.389.389 0 0 1 .118 0c.233-.168.484 0 .717-.032-.152.054-.31.088-.47.1zm-.343.37l-.216-.032.05-.05h.046l.1-.022v-.05h.073l.033.05v-.05h.049l.019.021c0-.02-.02-.02 0-.02 0 0-.036 0 0 0 .035 0 0-.03.035-.03.216 0 .448-.036.649-.036l-.132.208a.546.546 0 0 1-.151 0h-.57zm.139.316c-.27-.072-.556-.122-.84-.223-.15-.068-.287-.104-.397-.154l-.17-.032-.05-.022v.022h-.033l.148-.104.05.028v.022h.033l.036.03v.02h.047v-.05c.039 0 .039.05.053.05h.05a.067.067 0 0 1 .065.032s.036 0 .036-.032l.083.051c0-.019.049 0 .068-.019.018-.018.018 0 .018-.032s0 .032.049.032c.27.051.582.086.887.123l-.101.258zm-1.49-.409l-.002.002v-.002zm-.002.068h-.047c-.021 0 0 .032-.021.032v-.05l.068-.048zm.48-.119a.337.337 0 0 0-.143-.02c-.04-.033-.04-.084-.04-.17 0-.086.055-.086.119-.086.337.018.663.187 1.023.086a.394.394 0 0 1-.234.101c-.234.06-.475.09-.718.09zm.39-.258a.08.08 0 0 1-.063 0c-.047 0-.082-.032-.133-.064a.216.216 0 0 1 .05-.158c.243-.018.487.011.717.086.019.036.12.036.187.036a.428.428 0 0 1-.187.036 1.88 1.88 0 0 1-.587.082zm.777-.477h-.051a.106.106 0 0 1-.114-.089s0-.087.068-.1c.215-.105.448 0 .652 0a.816.816 0 0 1-.55.171zm.354-.24c-.05 0-.064 0-.097-.054a.033.033 0 0 1-.032-.032.118.118 0 0 1 .032-.122h.047c.187 0 .356.035.489.035a2.845 2.845 0 0 1-.285.173zm.14-.244v-.036a.156.156 0 0 1 .029-.15.565.565 0 0 1 .255-.018c.088.01.177.01.266 0h.079l-.034.017c-.064 0-.1.068-.135.087a.595.595 0 0 1-.36.1zm-1.165 1.818h.015-.001zm.015 0l.214-.104s.069.02.069 0h.085v.02a1.105 1.105 0 0 1-.368.083zm.77-.358l.05-.05h.083l-.101.05zm-2.01-.836l-.05-.068c.116-.129.26-.228.42-.29-.118.135-.215.272-.333.394-.017 0-.017-.036-.036-.036zm-.081-.14c-.02 0-.02 0-.02-.046 0-.047-.048-.09-.098-.155h.046a.362.362 0 0 1 .19-.018v.018c0 .068 0 .118-.036.137-.035.018-.046.068-.101.068z"/></g><g><path fill="#fff" d="M45.505 20.643a.417.417 0 0 1 0-.05s.021-.025 0-.036l-.043.036s.035 0 .035.05h-.024c0 .02.036 0 .043 0z"/></g><g><path fill="#fff" d="M43.906 19.484v-.05h.035v.035zm.064.003v-.035h.05c0 .017 0 .017-.032.017zm.067-.104v-.053h.034v.053zm.485.273c-.032-.018 0-.018 0-.05v-.032h.047v.032zm.047-.065v-.157c-.047-.069-.115-.137-.047-.24l.047.103v.104s0 .051.02.051v.086zm1.316 2.974c0-.054-.017-.054 0-.086h.05c0 .032.036.032 0 .054zm2.274-.67c.015-.033.015 0 .065-.033v.032zm.216-.05c0-.048 0-.048 0 0zm-.111.017v-.018h.046v.018l-.018.032zm0-.068v-.036h.046v.036zm.11-.122a.073.073 0 0 1 0 .036zm.034.172c.045-.047.045-.018.045 0s0 .018-.045.018zm-.836.771c0-.032.049-.032.049-.032v.05h-.05zm.049.083s-.05.018-.05 0 .05-.036.05-.018.037.018 0 .018zm.119-.033l.115.087-.115.068zm-1.926-.154c0 .022.032.054 0 .072 0-.05-.032-.072 0-.072zm-.032-.032a.01.01 0 0 0-.001-.003c0-.019.014-.033.033-.033 0 .036 0 .036-.032.036zm.103-.036v-.032c0 .032.05.032 0 .032zm.097.222c-.014-.032-.05-.032-.05-.082h.05zm-.818-1.04c0-.036.05-.07.05-.036v.036zm.183-.118l-.068-.032h.068zm-.133 0l-.05-.05h.05s.047 0 .047.036c0 .035-.032.032-.047.032zm-.082-.068a.085.085 0 0 0 0-.05v-.037c.015 0 .036.037.036.087zm.01.064c.016 0 .037 0 .037.058h-.036zm.586.19c0-.017.032-.017.032 0zm-.205-1.119v-.014h.004zm-.01-.027c-.02.007-.055.022-.055-.002v-.068h.036c.01.033.013.057.018.07zm.01-.002v.015c-.005-.002-.008-.006-.01-.013a.041.041 0 0 1 .01-.002zm4.785 1.543c.018-.05.119-.05.15 0zm-.301.237c.05-.054.133-.054.15 0zm-.036 0a.085.085 0 0 1-.05 0zm1.998-1.693v.068l-.201.104zm.302-.65a.4.4 0 0 1-.028.035zm-.028.035l-.238.306c.026-.118.16-.215.238-.306zm-.338.155l.132-.172v.054a.185.185 0 0 1-.115.118zm-.204.137l.122-.137-.083.101-.018.036z"/></g><g><path fill="#cfa44c" d="M52.784 17.292a4.391 4.391 0 0 1-8.782 0 4.405 4.405 0 0 1 4.395-4.394 4.39 4.39 0 0 1 4.387 4.394zm-8.47 0a4.084 4.084 0 0 0 8.165 0v-.003a4.083 4.083 0 0 0-8.165.003z"/></g><g><path fill="#244d9d" d="M48.397 13.709a3.588 3.588 0 1 1-.002 7.175 3.588 3.588 0 0 1 .002-7.175z"/></g><g><path fill="#3e95c8" d="M48.397 13.08a4.222 4.222 0 1 1-.015 8.445 4.222 4.222 0 0 1 .015-8.444z"/></g><g><path fill="#ec1e27" d="M48.397 14.422a2.87 2.87 0 1 1 0 5.739 2.87 2.87 0 0 1 0-5.739z"/></g><g><path fill="#e01f26" d="M48.397 13.798a3.504 3.504 0 1 1-3.51 3.508 3.513 3.513 0 0 1 3.51-3.508z"/></g><g><path fill="#31b155" d="M48.404 14.48a2.81 2.81 0 1 1-.001 5.618 2.81 2.81 0 0 1 0-5.619z"/></g><g><path fill="#cfa44c" d="M49.272 15.18l2.105-.873-.872 2.113 2.118.868-2.118.872.872 2.113-2.11-.872-.867 2.11-.871-2.11-2.117.872.872-2.113-2.11-.872 2.11-.868-.872-2.113 2.109.872.879-2.113z"/></g><g><path fill="#fff" d="M49.128 15.534l1.75-.72-.728 1.753 1.758.721-1.758.725.728 1.754-1.757-.725-.718 1.751-.728-1.75-1.75.724.721-1.754-1.747-.725 1.747-.72-.72-1.755 1.746.721.731-1.754z"/></g><g><path fill="#fff" d="M49.096 15.602l1.679-.685-.697 1.68 1.687.691-1.687.692.697 1.683-1.683-.693-.688 1.68-.7-1.68-1.682.693.699-1.683-1.686-.692 1.686-.692-.699-1.679 1.678.685.704-1.679z"/></g><g><path fill="#e01f26" d="M48.963 18.659c.255-.224.434-.522.51-.853.168-.822-.445-1.353-.754-1.866.05.599.48 1.076.445 1.693a1.61 1.61 0 0 1-.186.958.14.14 0 0 0-.022.068zm-.677.2c.118.019.189-.085.304-.085.018.05.122.05.208.05a.792.792 0 0 0 .24-.394c.132-.432.12-.894-.036-1.317-.135-.563-.516-.993-.516-1.611-.495.962.38 1.97.122 2.928v.086a.153.153 0 0 1-.122-.051c-.086-.222.122-.584.036-.89a1.52 1.52 0 0 0-.05-.258 5.491 5.491 0 0 1-.158-.631.646.646 0 0 0-.032-.222 1.401 1.401 0 0 1-.036-.413v-.1a1.968 1.968 0 0 0-.395 1.349c.03.156.07.31.122.462.036.219.172.377.172.578 0 .02-.032.02-.05.02-.358-.325-.308-.892-.358-1.333v-.265a1.74 1.74 0 0 0-.255 1.076c.039.175.107.342.2.495a1.129 1.129 0 0 1-.067-.527h.032c.01.377.172.735.448.993l.172.05z"/></g><g><path fill="#cfa44c" d="M49.939 20.704a.165.165 0 1 1 0 .33.165.165 0 0 1 0-.33z"/></g><g><path fill="#cfa44c" d="M51.98 18.608c.092 0 .165.074.165.165a.165.165 0 1 1-.165-.165z"/></g><g><path fill="#cfa44c" d="M52.145 15.843a.165.165 0 1 1-.33 0 .165.165 0 0 1 .33 0z"/></g><g><path fill="#cfa44c" d="M50.054 13.709a.166.166 0 0 1-.166.165.164.164 0 0 1-.164-.166.165.165 0 0 1 .164-.165c.092 0 .165.074.166.165z"/></g><g><path fill="#cfa44c" d="M46.871 13.543c.092 0 .165.074.165.165a.165.165 0 1 1-.165-.165z"/></g><g><path fill="#cfa44c" d="M44.985 15.843a.165.165 0 1 1-.165-.165h.004c.09.002.16.075.16.165z"/></g><g><path fill="#cfa44c" d="M44.985 18.77a.164.164 0 0 1-.164.165.165.165 0 1 1 .164-.165z"/></g><g><path fill="#cfa44c" d="M46.871 20.704c.092 0 .165.074.165.165a.165.165 0 1 1-.165-.165z"/></g><g><path fill="#847129" d="M17.998 70.517c0-.365-.114-.473-.33-.56v-.083h2.328c.936 0 1.394.54 1.394 1.227 0 .688-.473 1.228-1.407 1.228l1.215 1.505c.255.305.446.426.56.475v.085h-1.012l-1.88-2.352v-.101h1.025c.484 0 .713-.418.713-.84 0-.426-.229-.827-.713-.827h-1.007c-.12 0-.207.007-.207.215v3.278c0 .348.11.463.331.542v.085h-1.34v-.085c.216-.08.33-.194.33-.542z"/></g><g><path fill="#847129" d="M23.234 70.988v1.324h1.112c.138 0 .19-.159.228-.385h.049l-.07 1.078h-.041c-.021-.164-.055-.36-.166-.36h-1.112v1.31c0 .071.035.113.075.113h1.404c.263 0 .426-.304.485-.518h.047l-.157.844H22.38v-.07c.18-.067.273-.162.273-.449V71.19c0-.3-.093-.392-.273-.46v-.073h2.642a.128.128 0 0 0 .103-.043h.035l-.076.842h-.046c-.01-.148-.047-.467-.204-.467z"/></g><g><path fill="#847129" d="M26.143 71.189c0-.3-.092-.392-.272-.462v-.07h1.927c.776 0 1.157.446 1.157 1.015 0 .555-.388 1.015-1.157 1.015h-1.093v1.188c0 .288.094.382.275.448v.071h-1.109v-.071c.18-.066.272-.16.272-.448zm.735-.212c-.1 0-.173.013-.173.182v1.206h1.001c.41 0 .597-.347.597-.693 0-.348-.188-.695-.597-.695z"/></g><g><path fill="#847129" d="M32.657 72.58c0 1.282-.744 1.91-1.502 1.91-.765 0-1.53-.654-1.53-1.933v-1.37c0-.291-.1-.384-.28-.46v-.07h1.14v.07c-.163.076-.264.162-.264.418v1.343c0 1.097.512 1.65 1.046 1.65.511 0 1.01-.52 1.01-1.548v-1.403c0-.291-.09-.384-.265-.46v-.07h.916v.07c-.183.07-.27.162-.27.46z"/></g><g><path fill="#847129" d="M33.475 74.394v-.071c.178-.066.27-.16.27-.45v-2.686c0-.298-.092-.39-.27-.46v-.07h2.047c.485 0 1.11.155 1.11.93a.985.985 0 0 1-.327.752c.304.133.588.457.588.962 0 .813-.706 1.093-1.245 1.093zm.838-3.406v1.24h1.15c.25 0 .582-.101.582-.628 0-.537-.331-.612-.604-.612zm0 2.975c.004.049.043.094.072.094h1.225c.424 0 .623-.367.623-.756 0-.375-.184-.74-.56-.74h-1.36z"/></g><g><path fill="#847129" d="M40.132 74.394h-2.637v-.071c.166-.06.27-.157.27-.408v-2.726c0-.3-.087-.386-.27-.462v-.068h1.112v.068c-.175.07-.275.172-.275.462v2.707c0 .135.045.17.12.17h1.243c.218 0 .42-.203.54-.516h.047z"/></g><g><path fill="#847129" d="M41.837 70.657v.07c-.175.07-.273.172-.273.462v2.745c0 .258.101.328.273.39v.07H40.73v-.07c.165-.062.268-.138.268-.39V71.19c0-.3-.087-.386-.268-.462v-.07z"/></g><g><path fill="#847129" d="M44.484 74.152c.446 0 .99-.205 1.226-.85h.046l-.067.766c-.412.255-.824.416-1.296.416-1.332 0-2-.955-2-1.962 0-.987.668-1.956 2-1.956.424 0 .852.11 1.207.286.018-.006.034-.02.052-.03h.04l-.063.828h-.042c-.138-.506-.624-.75-1.103-.75-.716 0-1.441.541-1.441 1.613 0 1.104.725 1.64 1.44 1.64z"/></g><g><path fill="#847129" d="M51.631 72.474c0 1.266-.97 2.01-1.98 2.01-.972 0-1.914-.703-1.914-1.904 0-1.259.957-2.014 1.972-2.014.982 0 1.922.67 1.922 1.908zm-.654.106c0-.993-.579-1.685-1.33-1.685-.717 0-1.26.64-1.26 1.58 0 .993.575 1.681 1.322 1.681.717 0 1.268-.632 1.268-1.576z"/></g><g><path fill="#847129" d="M53.032 72.704v1.17c0 .282.096.378.28.45v.07h-1.115v-.077c.15-.06.263-.119.263-.422v-2.727c0-.298-.083-.365-.267-.44v-.07h2.483c.04 0 .085.004.118-.046h.048l-.073.838h-.048c-.008-.15-.036-.462-.197-.462h-1.492v1.39h1.02c.167 0 .212-.134.263-.384h.05v1.072h-.053c-.042-.205-.075-.362-.247-.362z"/></g><g><path fill="#847129" d="M59.78 72.886h-1.905l-.39.889c-.13.305.13.465.31.534v.086H56.44v-.086c.155-.055.378-.165.593-.644l1.533-3.476c-.02-.135-.282-.224-.345-.231v-.083h.978l1.67 3.83c.189.42.443.544.59.605v.085h-1.626v-.085c.149-.061.436-.23.324-.528-.035-.094-.076-.178-.113-.275zm-1.725-.407h1.553l-.764-1.81z"/></g><g><path fill="#847129" d="M62.01 70.573h.045c.032.084.129.084.19.084h2.584v.35l-2.302 3.059h1.801c.218 0 .418-.192.544-.516h.044l-.143.844h-3.001v-.316l2.301-3.063h-1.734c-.151 0-.292.235-.356.46h-.042z"/></g><g><path fill="#847129" d="M66.34 70.988v1.324h1.112c.14 0 .191-.159.227-.385h.051l-.07 1.078h-.044c-.019-.164-.054-.36-.164-.36H66.34v1.31c0 .071.033.113.076.113h1.403c.267 0 .425-.304.486-.518h.05l-.159.844h-2.71v-.07c.178-.067.275-.162.275-.449V71.19c0-.3-.097-.392-.275-.46v-.073h2.642c.04 0 .074-.009.103-.043h.034l-.078.842h-.043c-.012-.148-.047-.467-.204-.467z"/></g><g><path fill="#847129" d="M69.257 71.189c0-.3-.096-.392-.27-.46v-.072h1.923c.778 0 1.155.447 1.155 1.015 0 .565-.392 1.016-1.165 1.016l1.01 1.244c.208.25.364.351.462.391v.071h-.838l-1.555-1.943v-.086h.845c.403 0 .594-.347.594-.693 0-.351-.19-.684-.594-.684h-.83c-.104 0-.17.005-.17.175v2.712c0 .288.087.382.271.448v.071h-1.109v-.071c.175-.066.271-.16.271-.448z"/></g><g><path fill="#847129" d="M72.945 74.394v-.071c.177-.066.274-.16.274-.45v-2.686c0-.298-.097-.39-.274-.46v-.07h2.048c.486 0 1.111.155 1.111.93a.986.986 0 0 1-.33.752c.306.133.59.457.59.962 0 .813-.707 1.093-1.243 1.093zm.84-3.406v1.24h1.15c.25 0 .583-.101.583-.628 0-.537-.334-.612-.604-.612zm0 2.975c.002.049.041.094.072.094h1.222c.424 0 .628-.367.628-.756 0-.375-.188-.74-.563-.74h-1.359z"/></g><g><path fill="#847129" d="M79.353 73.146h-1.577l-.32.733c-.107.258.107.388.254.444v.071h-1.122v-.071c.131-.047.315-.138.493-.533l1.267-2.872c-.016-.11-.23-.186-.285-.191v-.068h.811l1.382 3.166c.156.346.366.447.488.498v.071h-1.346v-.071c.121-.051.36-.186.266-.436-.03-.077-.06-.149-.093-.226zm-1.429-.336h1.285l-.633-1.496z"/></g><g><path fill="#847129" d="M82.161 70.657v.07c-.174.07-.272.172-.272.462v2.745c0 .258.102.328.272.39v.07h-1.106v-.07c.165-.062.27-.138.27-.39V71.19c0-.3-.09-.386-.27-.462v-.07z"/></g><g><path fill="#847129" d="M84.02 70.657v.07c-.18.07-.271.161-.271.462v2.442c0 1.013-.286 1.546-1.081 1.837l-.022-.096c.479-.355.535-.934.535-1.74v-2.443c0-.294-.098-.386-.28-.462v-.07z"/></g><g><path fill="#847129" d="M87.093 73.146H85.52l-.325.733c-.108.258.113.388.257.444v.071H84.33v-.071c.128-.047.315-.138.493-.533l1.271-2.872c-.02-.11-.23-.186-.287-.191v-.068h.81l1.383 3.166c.155.346.364.447.488.498v.071H87.14v-.071c.121-.051.36-.186.263-.436-.024-.077-.057-.149-.089-.226zm-1.425-.336h1.283l-.633-1.496z"/></g><g><path fill="#847129" d="M92.336 74.394h-.404l-2.489-3.005v2.526c0 .248.111.348.273.408v.071h-.919v-.071c.17-.06.275-.167.275-.408v-2.794c-.008-.232-.11-.318-.275-.394v-.068h.837l2.326 2.779v-2.299c0-.262-.11-.342-.27-.412v-.068h.913v.068c-.168.076-.267.162-.267.412z"/></g><g><path fill="#847129" d="M6.469 74.392v.071H5.355v-.07c.171-.063.274-.153.274-.414v-2.922h-.857c-.321 0-.441.245-.519.481h-.049l.075-.84h3.266l.074.84H7.57c-.08-.236-.197-.48-.518-.48h-.858v2.921c0 .261.108.351.275.413z"/></g><g><path fill="#82722a" d="M12.091 70.697v.072c-.189.076-.286.165-.286.468v2.749a.381.381 0 0 0 .286.409v.068h-1.165v-.068a.38.38 0 0 0 .288-.41v-1.264H8.971v1.265a.367.367 0 0 0 .288.409v.068H8.094v-.068a.38.38 0 0 0 .29-.41v-2.748c0-.306-.098-.39-.29-.468v-.072H9.26v.072c-.182.073-.288.172-.288.468v1.147h2.23v-1.147c0-.3-.1-.39-.289-.468v-.072z"/></g><g><path fill="#847129" d="M13.632 71.053v1.334h1.122c.14 0 .192-.16.23-.388h.05l-.07 1.086h-.045c-.019-.166-.056-.364-.165-.364h-1.122v1.321c0 .072.034.114.077.114h1.414c.27 0 .428-.307.488-.522h.051l-.159.85h-2.73v-.07c.178-.068.276-.163.276-.453v-2.706c0-.302-.098-.395-.276-.464v-.072h2.661c.041 0 .074-.01.103-.043h.035l-.079.847h-.044c-.01-.149-.046-.47-.205-.47z"/></g><g><path fill="#847129" d="M22.767 63.092v.07c-.174.072-.272.17-.272.463v2.744c0 .258.1.329.272.39v.07H21.66v-.07c.165-.061.268-.137.268-.39v-2.744c0-.303-.087-.385-.268-.462v-.071z"/></g><g><path fill="#847129" d="M26.935 66.83h-.403l-2.487-3.005v2.525c0 .249.113.346.272.41v.07h-.92v-.07c.17-.064.279-.167.279-.41v-2.794c-.013-.233-.115-.315-.28-.393v-.07h.843l2.32 2.78v-2.297c0-.262-.108-.342-.27-.413v-.07h.917v.07c-.168.078-.271.16-.271.413z"/></g><g><path fill="#847129" d="M28.88 63.092v.07c-.177.072-.273.17-.273.463v2.744c0 .258.1.329.272.39v.07h-1.107v-.07c.165-.061.27-.137.27-.39v-2.744c0-.303-.087-.385-.27-.462v-.071z"/></g><g><path fill="#847129" d="M29.409 65.733h.047c.17.696.846.859 1.306.859.48 0 1.023-.214 1.023-.723 0-.43-.437-.568-.922-.698-.645-.173-1.364-.362-1.364-1.12 0-.718.738-1.05 1.463-1.05.369 0 .726.08.964.248.024-.01.053-.016.127-.046h.045v.824h-.045c-.064-.607-.783-.698-1.104-.698-.462 0-.883.19-.883.609 0 .303.588.455.857.53.649.177 1.427.432 1.427 1.31 0 .868-.847 1.17-1.66 1.15-.554-.01-1.037-.21-1.28-.436z"/></g><g><path fill="#847129" d="M34.882 66.76v.07h-1.105v-.07c.168-.063.272-.152.272-.41v-2.902h-.852c-.318 0-.437.244-.514.48h-.048l.072-.836h3.245l.071.835h-.047c-.08-.235-.197-.479-.513-.479h-.853v2.901c0 .26.108.348.272.41z"/></g><g><path fill="#847129" d="M36.752 63.625c0-.301-.096-.392-.273-.462v-.071h1.927c.776 0 1.153.448 1.153 1.015s-.393 1.012-1.16 1.012l1.002 1.245c.213.253.37.355.466.395v.071h-.84l-1.555-1.946v-.085h.847c.402 0 .594-.345.594-.692 0-.351-.192-.683-.594-.683h-.834c-.097 0-.17.004-.17.177v2.709c0 .288.092.38.275.449v.071h-1.11v-.071c.176-.069.272-.161.272-.449z"/></g><g><path fill="#847129" d="M42.029 65.141v1.26c.012.211.114.301.27.358v.07h-1.114v-.07c.165-.057.26-.132.28-.352v-1.116l-1.221-1.767c-.11-.155-.203-.31-.403-.362v-.07h1.178v.07c-.108.036-.256.106-.126.292l.919 1.352 1-1.347c.132-.175.007-.267-.132-.297v-.07h.97v.07a.443.443 0 0 0-.294.196z"/></g><g><path fill="#847129" d="M49.054 64.91c0 1.266-.969 2.008-1.979 2.008-.975 0-1.914-.703-1.914-1.903 0-1.26.955-2.014 1.971-2.014.981 0 1.922.67 1.922 1.91zm-.652.105c0-.994-.58-1.686-1.334-1.686-.715 0-1.259.64-1.259 1.581 0 .992.575 1.682 1.323 1.682.716 0 1.27-.632 1.27-1.577z"/></g><g><path fill="#847129" d="M50.456 65.141v1.168c0 .283.092.378.28.45v.07h-1.117v-.077c.15-.06.266-.119.266-.423v-2.724c0-.3-.087-.365-.269-.443v-.07H52.1c.041 0 .085.006.118-.043h.044l-.068.837h-.049c-.007-.152-.035-.46-.199-.46h-1.489v1.39h1.015c.17 0 .218-.137.267-.389h.05v1.075h-.053c-.042-.205-.073-.36-.249-.36z"/></g><g><path fill="#847129" d="M92.866 64.91c0 1.266-.97 2.008-1.98 2.008-.975 0-1.914-.703-1.914-1.903 0-1.26.956-2.014 1.97-2.014.982 0 1.924.67 1.924 1.91zm-.653.105c0-.994-.58-1.686-1.334-1.686-.715 0-1.26.64-1.26 1.581 0 .992.577 1.682 1.324 1.682.716 0 1.27-.632 1.27-1.577z"/></g><g><path fill="#847129" d="M94.267 65.141v1.168c0 .283.092.378.279.45v.07H93.43v-.077c.149-.06.266-.119.266-.423v-2.724c0-.3-.087-.365-.27-.443v-.07h2.484c.04 0 .084.006.117-.043h.045l-.07.837h-.047c-.007-.152-.035-.46-.2-.46h-1.49v1.39h1.016c.17 0 .219-.137.267-.389h.05v1.075h-.052c-.043-.205-.074-.36-.25-.36z"/></g><g><path fill="#847129" d="M55.384 62.711v1.602h1.349c.163 0 .224-.195.273-.468h.062l-.088 1.306h-.052c-.023-.199-.065-.437-.195-.437h-1.349V66.3c0 .086.042.134.093.134h1.693c.321 0 .517-.365.587-.628h.06l-.19 1.024h-3.274v-.086c.216-.08.33-.195.33-.54v-3.25c0-.365-.114-.474-.33-.558v-.086h3.192a.152.152 0 0 0 .125-.055h.041l-.095 1.021h-.053c-.013-.185-.055-.564-.244-.564z"/></g><g><path fill="#847129" d="M58.429 66.83v-.07c.178-.069.27-.162.27-.45v-2.685c0-.302-.092-.392-.27-.463v-.072h1.843c1.197 0 1.796.937 1.796 1.871 0 .932-.599 1.868-1.796 1.868zm.832-.449c.005.084.062.115.124.115h.638c.985 0 1.399-.759 1.399-1.535 0-.772-.414-1.537-1.399-1.537h-.762z"/></g><g><path fill="#847129" d="M65.672 65.016c0 1.28-.746 1.91-1.498 1.91-.766 0-1.536-.656-1.536-1.935v-1.366c0-.296-.092-.384-.277-.462v-.071h1.141v.07c-.166.079-.264.16-.264.419v1.345c0 1.093.511 1.647 1.045 1.647.512 0 1.012-.516 1.012-1.543v-1.405c0-.296-.09-.384-.264-.462v-.071h.913v.07c-.18.072-.272.16-.272.463z"/></g><g><path fill="#847129" d="M68.38 66.585c.446 0 .99-.204 1.227-.848h.043l-.064.765c-.415.257-.826.416-1.3.416-1.33 0-1.996-.954-1.996-1.957 0-.992.665-1.96 1.996-1.96.426 0 .855.112 1.21.29.014-.007.033-.022.051-.033h.043l-.064.827h-.045c-.137-.504-.625-.752-1.102-.752-.716 0-1.443.543-1.443 1.618 0 1.103.727 1.634 1.443 1.634z"/></g><g><path fill="#847129" d="M72.592 65.581h-1.576l-.322.734c-.109.257.11.387.255.444v.07h-1.122v-.07c.128-.046.314-.138.491-.533l1.267-2.872c-.015-.11-.228-.186-.282-.19v-.072h.807l1.39 3.17c.15.345.361.446.482.497v.07H72.64v-.07c.121-.05.36-.187.263-.438-.028-.075-.058-.145-.09-.227zm-1.428-.335h1.284l-.63-1.496z"/></g><g><path fill="#847129" d="M75.948 66.76v.07h-1.105v-.07c.168-.063.272-.152.272-.41v-2.902h-.851c-.318 0-.438.244-.515.48h-.048l.073-.836h3.242l.075.835h-.05c-.08-.235-.195-.479-.513-.479h-.853v2.901c0 .26.109.348.274.41z"/></g><g><path fill="#847129" d="M78.654 63.092v.07c-.176.072-.273.17-.273.463v2.744c0 .258.102.329.273.39v.07h-1.107v-.07c.165-.061.269-.137.269-.39v-2.744c0-.303-.09-.385-.27-.462v-.071z"/></g><g><path fill="#847129" d="M83.041 64.91c0 1.266-.97 2.008-1.977 2.008-.975 0-1.917-.703-1.917-1.903 0-1.26.958-2.014 1.971-2.014.982 0 1.923.67 1.923 1.91zm-.655.105c0-.994-.575-1.686-1.33-1.686-.717 0-1.257.64-1.257 1.581 0 .992.571 1.682 1.32 1.682.717 0 1.267-.632 1.267-1.577z"/></g><g><path fill="#847129" d="M87.07 66.83h-.4l-2.49-3.005v2.525c0 .249.114.346.273.41v.07h-.92v-.07c.173-.064.276-.167.276-.41v-2.794c-.01-.233-.111-.315-.275-.393v-.07h.838l2.325 2.78v-2.297c0-.262-.111-.342-.272-.413v-.07h.917v.07c-.167.078-.271.16-.271.413z"/></g><g><path fill="#847129" d="M16.103 62.927c.063-.3-.115-.48-.291-.566v-.084h1.142l1.21 3.605 1.169-3.605h1.133v.084c-.178.087-.36.262-.3.548l.67 2.998c.142.632.313.75.446.816v.086h-1.214v-.086c.24-.058.266-.281.184-.617l-.71-3.044-1.233 3.747h-.512l-1.235-3.753-.717 3.057c-.073.315-.073.528.165.61v.086h-1.006v-.086c.168-.058.308-.184.423-.718z"/></g><g><path fill="#847129" d="M3.46 66.723v.085H2.12v-.085c.204-.074.33-.183.33-.496V62.71H1.418c-.386 0-.53.296-.625.58H.734l.09-1.012h3.932l.09 1.012h-.06c-.097-.284-.238-.58-.624-.58H3.13v3.518c0 .313.131.422.331.496z"/></g><g><path fill="#82722a" d="M9.139 63.022v.072c-.188.075-.285.165-.285.468v2.749a.38.38 0 0 0 .285.407v.07H7.975v-.07a.379.379 0 0 0 .288-.407v-1.266H6.019v1.266c-.026.19.1.368.289.407v.07H5.143v-.07a.379.379 0 0 0 .289-.407v-2.75c0-.306-.097-.388-.29-.467v-.073h1.166v.072c-.182.072-.29.172-.29.468v1.148h2.23V63.56c0-.3-.098-.388-.287-.467v-.073z"/></g><g><path fill="#847129" d="M10.68 63.377v1.334h1.123c.14 0 .192-.16.229-.388h.05l-.07 1.086h-.044c-.02-.165-.056-.363-.165-.363H10.68v1.32c0 .072.034.114.077.114h1.414c.269 0 .428-.306.488-.522h.05l-.158.85h-2.73v-.07c.178-.068.276-.163.276-.452V63.58c0-.302-.098-.394-.276-.464v-.072h2.66c.042 0 .075-.01.104-.043h.035l-.08.847h-.043c-.01-.148-.046-.47-.205-.47z"/></g></g></svg>