<svg xmlns="http://www.w3.org/2000/svg" width="6" height="6" viewBox="0 0 6 6"><g><g><path fill="#b2b1b1" d="M.584 4.978c.01-.022.017-.045.026-.066-.007.02-.016.04-.024.059.054-.13.125-.25.21-.36l-.039.05a1.859 1.859 0 0 1 .29-.296c.183-.144.39-.255.602-.346l-.058.024c.312-.13.643-.217.976-.277.09-.017.181-.03.271-.042l-.066.01a7.21 7.21 0 0 1 .853-.064l-.246-.245c0 .236-.003.472 0 .707a.434.434 0 0 0 .06.217.443.443 0 0 0 .238.188c.078.028.18.027.258-.003a.542.542 0 0 0 .154-.093l.125-.105c.214-.178.427-.358.641-.538l.744-.623.257-.217c.036-.029.072-.056.106-.087a.425.425 0 0 0 0-.605L5.93 2.24a13.623 13.623 0 0 0-.184-.154c-.23-.195-.464-.389-.695-.583L4.34.907 4.13.731a1.229 1.229 0 0 0-.04-.034.5.5 0 0 0-.155-.093A.4.4 0 0 0 3.676.6a.433.433 0 0 0-.239.19.406.406 0 0 0-.058.214v.702l.245-.247a5.187 5.187 0 0 0-.713.071 3.873 3.873 0 0 0-1.318.464 3.128 3.128 0 0 0-.455.328 2.789 2.789 0 0 0-.696.92A3.855 3.855 0 0 0 .106 4.71a6.87 6.87 0 0 0-.003.203c0 .127.112.252.245.245a.25.25 0 0 0 .245-.245c0-.2.012-.399.038-.596l-.009.065c.04-.292.111-.579.226-.85l-.025.058c.09-.21.203-.41.343-.59l-.038.048c.135-.174.292-.33.467-.466l-.049.038a2.98 2.98 0 0 1 .675-.39c-.02.008-.039.017-.059.024a3.96 3.96 0 0 1 1.368-.298l.095-.004a.25.25 0 0 0 .245-.245v-.625c0-.034-.002-.069.001-.1l-.009.063a.195.195 0 0 1 .014-.047l-.024.058a.147.147 0 0 1 .021-.036l-.039.05a.177.177 0 0 1 .034-.033l-.05.04a.212.212 0 0 1 .036-.022l-.059.025a.184.184 0 0 1 .051-.014l-.065.01a.134.134 0 0 1 .04 0c-.02-.004-.043-.008-.064-.01a.165.165 0 0 1 .047.013l-.059-.025a.16.16 0 0 1 .038.023l-.05-.038c.066.052.13.107.194.161l.451.38.545.455.468.392c.072.061.145.12.216.182.011.01.021.02.03.031L5.6 2.59a.602.602 0 0 1 .02.035l-.025-.058c.006.015.01.03.011.045l-.008-.065a.177.177 0 0 1 0 .046.466.466 0 0 0 .008-.064c0 .015-.006.03-.01.045l.023-.059a.291.291 0 0 1-.02.035c.012-.016.025-.033.04-.05-.022.026-.048.045-.074.067l-.13.11c-.15.125-.298.25-.447.373-.18.153-.363.305-.545.456l-.472.397-.228.191a.035.035 0 0 0-.009.007l.05-.038a.145.145 0 0 1-.038.022l.06-.024a.275.275 0 0 1-.048.013l.064-.009a.267.267 0 0 1-.04 0l.065.01a.23.23 0 0 1-.05-.016c.018.01.038.017.058.025a.158.158 0 0 1-.036-.02l.05.038a.177.177 0 0 1-.034-.033l.04.05a.13.13 0 0 1-.022-.036l.024.06a.203.203 0 0 1-.014-.049l.01.065c-.01-.083-.002-.169-.002-.252v-.48a.249.249 0 0 0-.245-.247 7.36 7.36 0 0 0-1.369.149 4.273 4.273 0 0 0-1.199.438 2.594 2.594 0 0 0-.37.263 1.859 1.859 0 0 0-.576.817.25.25 0 0 0 .025.19.26.26 0 0 0 .146.113.252.252 0 0 0 .19-.025.277.277 0 0 0 .112-.146z"/></g></g></svg>