<svg xmlns="http://www.w3.org/2000/svg" width="6" height="6" viewBox="0 0 6 6"><g><g><path fill="#b2b1b1" d="M5.606 1.035L5.58 1.1l.024-.058a1.615 1.615 0 0 1-.21.36l.039-.05a1.925 1.925 0 0 1-.34.335l.05-.039a2.687 2.687 0 0 1-.603.344l.059-.024a4.66 4.66 0 0 1-.977.278c-.09.016-.18.03-.27.041l.065-.008c-.233.031-.468.05-.703.06l-.15.003c.083.081.165.163.246.245 0-.237.004-.473 0-.708a.422.422 0 0 0-.058-.216.444.444 0 0 0-.24-.189.4.4 0 0 0-.257.004.507.507 0 0 0-.154.093l-.125.105-.642.537-.743.624-.257.216c-.036.03-.072.057-.106.088a.423.423 0 0 0 0 .604c.01.01.022.02.03.026l.186.155.695.583.71.595c.07.06.142.118.212.176l.04.035c.055.044.09.068.155.092a.4.4 0 0 0 .258.004.438.438 0 0 0 .239-.188.429.429 0 0 0 .058-.216v-.701l-.245.246c.238-.005.476-.03.713-.07.284-.048.565-.122.832-.23.167-.068.33-.143.486-.235.16-.094.314-.206.455-.328.292-.252.532-.57.696-.92A3.884 3.884 0 0 0 6.088 1.1c0-.128-.113-.252-.245-.246a.25.25 0 0 0-.245.246 4.538 4.538 0 0 1-.03.531c-.04.292-.11.58-.225.85l.025-.058c-.09.211-.203.41-.344.591l.039-.049a2.613 2.613 0 0 1-.468.466l.05-.039a2.98 2.98 0 0 1-.675.391c.02-.008.039-.017.059-.024a3.914 3.914 0 0 1-1.022.27l.065-.009a4.1 4.1 0 0 1-.411.037l-.095.003a.25.25 0 0 0-.245.246v.625c0 .034.002.068-.001.101a1.44 1.44 0 0 0 .008-.065.189.189 0 0 1-.013.048l.024-.058a.18.18 0 0 1-.021.035l.038-.05a.172.172 0 0 1-.033.033l.05-.038a.216.216 0 0 1-.036.02l.059-.025a.223.223 0 0 1-.052.015l.066-.009a.28.28 0 0 1-.041 0l.065.01a.252.252 0 0 1-.047-.014l.059.025a.163.163 0 0 1-.038-.024.612.612 0 0 0 .05.04c-.066-.053-.13-.109-.194-.163l-.451-.378-.545-.457A74.94 74.94 0 0 1 .8 3.585c-.072-.06-.145-.119-.216-.18a.453.453 0 0 1-.031-.032.598.598 0 0 1 .039.05l-.02-.035.025.058A.173.173 0 0 1 .585 3.4l.008.066a.185.185 0 0 1 0-.047 1.44 1.44 0 0 0-.008.065.195.195 0 0 1 .012-.046l-.024.06a.168.168 0 0 1 .02-.035l-.04.05c.022-.027.048-.046.074-.067l.13-.11.447-.374c.18-.152.362-.304.544-.455a1049.876 1049.876 0 0 1 .71-.596l-.05.04a.145.145 0 0 1 .038-.023l-.06.024a.193.193 0 0 1 .048-.013l-.065.01a.14.14 0 0 1 .04 0 .747.747 0 0 0-.065-.01.182.182 0 0 1 .052.014l-.06-.024a.216.216 0 0 1 .037.02 2.18 2.18 0 0 1-.05-.039c.012.01.023.021.033.033l-.038-.05a.195.195 0 0 1 .02.037c-.006-.02-.015-.04-.023-.06.006.017.01.031.013.05l-.008-.067c.008.083 0 .17 0 .253v.481c0 .131.113.247.246.245a7.253 7.253 0 0 0 1.369-.149 4.35 4.35 0 0 0 .782-.236c.143-.059.284-.123.417-.2.13-.077.255-.166.37-.264a1.859 1.859 0 0 0 .576-.817.248.248 0 0 0-.172-.302.24.24 0 0 0-.19.025.275.275 0 0 0-.112.146z"/></g></g></svg>